<?xml version="1.0" encoding="UTF-8"?>

<!DOCTYPE svg PUBLIC '-//W3C//DTD SVG 20001102//EN' 'http://www.w3.org/TR/2000/CR-SVG-20001102/DTD/svg-20001102.dtd'>
<svg style="fill-opacity:1; color-interpolation:sRGB; color-rendering:auto; text-rendering:auto; stroke:black; stroke-linecap:square; stroke-miterlimit:10; stroke-opacity:1; shape-rendering:auto; fill:black; stroke-dasharray:none; font-weight:normal; stroke-width:1; font-family:&apos;Lucida Sans&apos;; font-style:normal; stroke-linejoin:miter; font-size:12; image-rendering:auto; stroke-dashoffset:0;" width="661" height="374">
  <!--Generated by the Batik Graphics2D SVG Generator-->
  <defs id="genericDefs" />
  <g>
    <defs id="defs1">
      <clipPath clipPathUnits="userSpaceOnUse" id="clipPath1">
        <path d="M0 0 L661 0 L661 374 L0 374 L0 0 Z" />
      </clipPath>
      <clipPath clipPathUnits="userSpaceOnUse" id="clipPath2">
        <path d="M248 20 L248 81 L349 81 L349 20 Z" />
      </clipPath>
      <clipPath clipPathUnits="userSpaceOnUse" id="clipPath3">
        <path d="M252 20 L252 81 L345 81 L345 20 Z" />
      </clipPath>
      <clipPath clipPathUnits="userSpaceOnUse" id="clipPath4">
        <path d="M62 20 L62 81 L184 81 L184 20 Z" />
      </clipPath>
      <clipPath clipPathUnits="userSpaceOnUse" id="clipPath5">
        <path d="M66 20 L66 81 L180 81 L180 20 Z" />
      </clipPath>
      <clipPath clipPathUnits="userSpaceOnUse" id="clipPath6">
        <path d="M413 20 L413 81 L514 81 L514 20 Z" />
      </clipPath>
      <clipPath clipPathUnits="userSpaceOnUse" id="clipPath7">
        <path d="M417 20 L417 81 L510 81 L510 20 Z" />
      </clipPath>
      <clipPath clipPathUnits="userSpaceOnUse" id="clipPath8">
        <path d="M257 300 L257 361 L358 361 L358 300 Z" />
      </clipPath>
      <clipPath clipPathUnits="userSpaceOnUse" id="clipPath9">
        <path d="M261 300 L261 361 L354 361 L354 300 Z" />
      </clipPath>
      <clipPath clipPathUnits="userSpaceOnUse" id="clipPath10">
        <path d="M222 150 L222 211 L349 211 L349 150 Z" />
      </clipPath>
      <clipPath clipPathUnits="userSpaceOnUse" id="clipPath11">
        <path d="M226 150 L226 211 L345 211 L345 150 Z" />
      </clipPath>
      <clipPath clipPathUnits="userSpaceOnUse" id="clipPath12">
        <path d="M502 220 L502 281 L648 281 L648 220 Z" />
      </clipPath>
      <clipPath clipPathUnits="userSpaceOnUse" id="clipPath13">
        <path d="M506 220 L506 281 L644 281 L644 220 Z" />
      </clipPath>
      <clipPath clipPathUnits="userSpaceOnUse" id="clipPath14">
        <path d="M72 300 L72 361 L173 361 L173 300 Z" />
      </clipPath>
      <clipPath clipPathUnits="userSpaceOnUse" id="clipPath15">
        <path d="M76 300 L76 361 L169 361 L169 300 Z" />
      </clipPath>
    </defs>
    <g style="fill:navy; stroke:navy;">
      <polygon style="clip-path:url(#clipPath1); stroke:none;" points=" 230 23 351 23 351 83 230 83 230 62 209 62 209 50 230 50 230 44 209 44 209 32 230 32 230 23" />
      <polygon style="fill:white; clip-path:url(#clipPath1); stroke:none;" points=" 227 20 348 20 348 80 227 80 227 59 206 59 206 47 227 47 227 41 206 41 206 29 227 29 227 20" />
      <polygon style="fill:none; clip-path:url(#clipPath1); stroke:black;" points=" 227 20 348 20 348 80 227 80 227 59 206 59 206 47 227 47 227 41 206 41 206 29 227 29 227 20" />
      <line x1="227" x2="248" y1="59" style="clip-path:url(#clipPath1); fill:none; stroke:black;" y2="59" />
      <line x1="248" x2="248" y1="59" style="clip-path:url(#clipPath1); fill:none; stroke:black;" y2="47" />
      <line x1="248" x2="227" y1="47" style="clip-path:url(#clipPath1); fill:none; stroke:black;" y2="47" />
      <line x1="227" x2="248" y1="41" style="clip-path:url(#clipPath1); fill:none; stroke:black;" y2="41" />
      <line x1="248" x2="248" y1="41" style="clip-path:url(#clipPath1); fill:none; stroke:black;" y2="29" />
      <line x1="248" x2="227" y1="29" style="clip-path:url(#clipPath1); fill:none; stroke:black;" y2="29" />
    </g>
    <g style="font-family:sans-serif;">
      <text x="281" y="30" style="clip-path:url(#clipPath3); stroke:none;">Input
      </text>
    </g>
    <g style="fill:navy; stroke:navy;">
      <polygon style="clip-path:url(#clipPath1); stroke:none;" points=" 44 23 186 23 186 83 44 83 44 62 23 62 23 50 44 50 44 44 23 44 23 32 44 32 44 23" />
      <polygon style="fill:white; clip-path:url(#clipPath1); stroke:none;" points=" 41 20 183 20 183 80 41 80 41 59 20 59 20 47 41 47 41 41 20 41 20 29 41 29 41 20" />
      <polygon style="fill:none; clip-path:url(#clipPath1); stroke:black;" points=" 41 20 183 20 183 80 41 80 41 59 20 59 20 47 41 47 41 41 20 41 20 29 41 29 41 20" />
      <line x1="41" x2="62" y1="59" style="clip-path:url(#clipPath1); fill:none; stroke:black;" y2="59" />
      <line x1="62" x2="62" y1="59" style="clip-path:url(#clipPath1); fill:none; stroke:black;" y2="47" />
      <line x1="62" x2="41" y1="47" style="clip-path:url(#clipPath1); fill:none; stroke:black;" y2="47" />
      <line x1="41" x2="62" y1="41" style="clip-path:url(#clipPath1); fill:none; stroke:black;" y2="41" />
      <line x1="62" x2="62" y1="41" style="clip-path:url(#clipPath1); fill:none; stroke:black;" y2="29" />
      <line x1="62" x2="41" y1="29" style="clip-path:url(#clipPath1); fill:none; stroke:black;" y2="29" />
    </g>
    <g style="font-family:sans-serif;">
      <text x="70" y="30" style="clip-path:url(#clipPath5); stroke:none;">Texture Manager
      </text>
    </g>
    <g style="fill:navy; stroke:navy;">
      <polygon style="clip-path:url(#clipPath1); stroke:none;" points=" 395 23 516 23 516 83 395 83 395 62 374 62 374 50 395 50 395 44 374 44 374 32 395 32 395 23" />
      <polygon style="fill:white; clip-path:url(#clipPath1); stroke:none;" points=" 392 20 513 20 513 80 392 80 392 59 371 59 371 47 392 47 392 41 371 41 371 29 392 29 392 20" />
      <polygon style="fill:none; clip-path:url(#clipPath1); stroke:black;" points=" 392 20 513 20 513 80 392 80 392 59 371 59 371 47 392 47 392 41 371 41 371 29 392 29 392 20" />
      <line x1="392" x2="413" y1="59" style="clip-path:url(#clipPath1); fill:none; stroke:black;" y2="59" />
      <line x1="413" x2="413" y1="59" style="clip-path:url(#clipPath1); fill:none; stroke:black;" y2="47" />
      <line x1="413" x2="392" y1="47" style="clip-path:url(#clipPath1); fill:none; stroke:black;" y2="47" />
      <line x1="392" x2="413" y1="41" style="clip-path:url(#clipPath1); fill:none; stroke:black;" y2="41" />
      <line x1="413" x2="413" y1="41" style="clip-path:url(#clipPath1); fill:none; stroke:black;" y2="29" />
      <line x1="413" x2="392" y1="29" style="clip-path:url(#clipPath1); fill:none; stroke:black;" y2="29" />
    </g>
    <g style="font-family:sans-serif;">
      <text x="456" y="30" style="clip-path:url(#clipPath7); stroke:none;">UI
      </text>
    </g>
    <g style="fill:navy; stroke:navy;">
      <polygon style="clip-path:url(#clipPath1); stroke:none;" points=" 239 303 360 303 360 363 239 363 239 342 218 342 218 330 239 330 239 324 218 324 218 312 239 312 239 303" />
      <polygon style="fill:white; clip-path:url(#clipPath1); stroke:none;" points=" 236 300 357 300 357 360 236 360 236 339 215 339 215 327 236 327 236 321 215 321 215 309 236 309 236 300" />
      <polygon style="fill:none; clip-path:url(#clipPath1); stroke:black;" points=" 236 300 357 300 357 360 236 360 236 339 215 339 215 327 236 327 236 321 215 321 215 309 236 309 236 300" />
      <line x1="236" x2="257" y1="339" style="clip-path:url(#clipPath1); fill:none; stroke:black;" y2="339" />
      <line x1="257" x2="257" y1="339" style="clip-path:url(#clipPath1); fill:none; stroke:black;" y2="327" />
      <line x1="257" x2="236" y1="327" style="clip-path:url(#clipPath1); fill:none; stroke:black;" y2="327" />
      <line x1="236" x2="257" y1="321" style="clip-path:url(#clipPath1); fill:none; stroke:black;" y2="321" />
      <line x1="257" x2="257" y1="321" style="clip-path:url(#clipPath1); fill:none; stroke:black;" y2="309" />
      <line x1="257" x2="236" y1="309" style="clip-path:url(#clipPath1); fill:none; stroke:black;" y2="309" />
    </g>
    <g style="font-family:sans-serif;">
      <text x="276" y="310" style="clip-path:url(#clipPath9); stroke:none;">Messages
      </text>
    </g>
    <g>
      <polygon style="clip-path:url(#clipPath8); stroke:none;" points=" 262 352 265 352 265 355 264 354 262 356 262 358 261 357 261 355 263 353 262 352" />
      <polygon style="fill:none; clip-path:url(#clipPath8);" points=" 262 352 265 352 265 355 264 354 262 356 262 358 261 357 261 355 263 353 262 352" />
    </g>
    <g style="fill:navy; stroke:navy;">
      <polygon style="clip-path:url(#clipPath1); stroke:none;" points=" 204 153 351 153 351 213 204 213 204 192 183 192 183 180 204 180 204 174 183 174 183 162 204 162 204 153" />
      <polygon style="fill:white; clip-path:url(#clipPath1); stroke:none;" points=" 201 150 348 150 348 210 201 210 201 189 180 189 180 177 201 177 201 171 180 171 180 159 201 159 201 150" />
      <polygon style="fill:none; clip-path:url(#clipPath1); stroke:black;" points=" 201 150 348 150 348 210 201 210 201 189 180 189 180 177 201 177 201 171 180 171 180 159 201 159 201 150" />
      <line x1="201" x2="222" y1="189" style="clip-path:url(#clipPath1); fill:none; stroke:black;" y2="189" />
      <line x1="222" x2="222" y1="189" style="clip-path:url(#clipPath1); fill:none; stroke:black;" y2="177" />
      <line x1="222" x2="201" y1="177" style="clip-path:url(#clipPath1); fill:none; stroke:black;" y2="177" />
      <line x1="201" x2="222" y1="171" style="clip-path:url(#clipPath1); fill:none; stroke:black;" y2="171" />
      <line x1="222" x2="222" y1="171" style="clip-path:url(#clipPath1); fill:none; stroke:black;" y2="159" />
      <line x1="222" x2="201" y1="159" style="clip-path:url(#clipPath1); fill:none; stroke:black;" y2="159" />
    </g>
    <g style="font-family:sans-serif;">
      <text x="230" y="160" style="clip-path:url(#clipPath11); stroke:none;">&lt;&lt;application&gt;&gt;
      </text>
      <text x="266" y="173" style="clip-path:url(#clipPath11); stroke:none;">Client
      </text>
    </g>
    <g style="fill:navy; stroke:navy;">
      <polygon style="clip-path:url(#clipPath1); stroke:none;" points=" 484 223 650 223 650 283 484 283 484 262 463 262 463 250 484 250 484 244 463 244 463 232 484 232 484 223" />
      <polygon style="fill:white; clip-path:url(#clipPath1); stroke:none;" points=" 481 220 647 220 647 280 481 280 481 259 460 259 460 247 481 247 481 241 460 241 460 229 481 229 481 220" />
      <polygon style="fill:none; clip-path:url(#clipPath1); stroke:black;" points=" 481 220 647 220 647 280 481 280 481 259 460 259 460 247 481 247 481 241 460 241 460 229 481 229 481 220" />
      <line x1="481" x2="502" y1="259" style="clip-path:url(#clipPath1); fill:none; stroke:black;" y2="259" />
      <line x1="502" x2="502" y1="259" style="clip-path:url(#clipPath1); fill:none; stroke:black;" y2="247" />
      <line x1="502" x2="481" y1="247" style="clip-path:url(#clipPath1); fill:none; stroke:black;" y2="247" />
      <line x1="481" x2="502" y1="241" style="clip-path:url(#clipPath1); fill:none; stroke:black;" y2="241" />
      <line x1="502" x2="502" y1="241" style="clip-path:url(#clipPath1); fill:none; stroke:black;" y2="229" />
      <line x1="502" x2="481" y1="229" style="clip-path:url(#clipPath1); fill:none; stroke:black;" y2="229" />
    </g>
    <g style="font-family:sans-serif;">
      <text x="510" y="230" style="clip-path:url(#clipPath13); stroke:none;">Connection Manager
      </text>
    </g>
    <g>
      <polygon style="clip-path:url(#clipPath12); stroke:none;" points=" 507 272 510 272 510 275 509 274 507 276 507 278 506 277 506 275 508 273 507 272" />
      <polygon style="fill:none; clip-path:url(#clipPath12);" points=" 507 272 510 272 510 275 509 274 507 276 507 278 506 277 506 275 508 273 507 272" />
    </g>
    <g style="fill:navy; stroke:navy;">
      <polygon style="clip-path:url(#clipPath1); stroke:none;" points=" 54 303 175 303 175 363 54 363 54 342 33 342 33 330 54 330 54 324 33 324 33 312 54 312 54 303" />
      <polygon style="fill:white; clip-path:url(#clipPath1); stroke:none;" points=" 51 300 172 300 172 360 51 360 51 339 30 339 30 327 51 327 51 321 30 321 30 309 51 309 51 300" />
      <polygon style="fill:none; clip-path:url(#clipPath1); stroke:black;" points=" 51 300 172 300 172 360 51 360 51 339 30 339 30 327 51 327 51 321 30 321 30 309 51 309 51 300" />
      <line x1="51" x2="72" y1="339" style="clip-path:url(#clipPath1); fill:none; stroke:black;" y2="339" />
      <line x1="72" x2="72" y1="339" style="clip-path:url(#clipPath1); fill:none; stroke:black;" y2="327" />
      <line x1="72" x2="51" y1="327" style="clip-path:url(#clipPath1); fill:none; stroke:black;" y2="327" />
      <line x1="51" x2="72" y1="321" style="clip-path:url(#clipPath1); fill:none; stroke:black;" y2="321" />
      <line x1="72" x2="72" y1="321" style="clip-path:url(#clipPath1); fill:none; stroke:black;" y2="309" />
      <line x1="72" x2="51" y1="309" style="clip-path:url(#clipPath1); fill:none; stroke:black;" y2="309" />
    </g>
    <g style="font-family:sans-serif;">
      <text x="102" y="310" style="clip-path:url(#clipPath15); stroke:none;">Sound
      </text>
    </g>
    <g>
      <line x1="460" x2="460" y1="271" style="clip-path:url(#clipPath1); fill:none;" y2="271" />
      <line x1="458" x2="449" y1="272" style="clip-path:url(#clipPath1); fill:none;" y2="276" />
      <line x1="444" x2="435" y1="277" style="clip-path:url(#clipPath1); fill:none;" y2="281" />
      <line x1="430" x2="421" y1="283" style="clip-path:url(#clipPath1); fill:none;" y2="287" />
      <line x1="417" x2="407" y1="289" style="clip-path:url(#clipPath1); fill:none;" y2="293" />
      <line x1="403" x2="393" y1="295" style="clip-path:url(#clipPath1); fill:none;" y2="298" />
      <line x1="389" x2="380" y1="300" style="clip-path:url(#clipPath1); fill:none;" y2="304" />
      <line x1="375" x2="366" y1="306" style="clip-path:url(#clipPath1); fill:none;" y2="310" />
      <line x1="361" x2="360" y1="312" style="clip-path:url(#clipPath1); fill:none;" y2="312" />
      <line x1="260" x2="260" y1="213" style="clip-path:url(#clipPath1); fill:none;" y2="213" />
      <line x1="260" x2="260" y1="215" style="clip-path:url(#clipPath1); fill:none;" y2="225" />
      <line x1="260" x2="260" y1="230" style="clip-path:url(#clipPath1); fill:none;" y2="240" />
      <line x1="260" x2="260" y1="245" style="clip-path:url(#clipPath1); fill:none;" y2="255" />
      <line x1="260" x2="260" y1="260" style="clip-path:url(#clipPath1); fill:none;" y2="270" />
      <line x1="260" x2="260" y1="275" style="clip-path:url(#clipPath1); fill:none;" y2="285" />
      <line x1="260" x2="260" y1="290" style="clip-path:url(#clipPath1); fill:none;" y2="300" />
      <line x1="351" x2="351" y1="201" style="clip-path:url(#clipPath1); fill:none;" y2="201" />
      <line x1="354" x2="364" y1="202" style="clip-path:url(#clipPath1); fill:none;" y2="205" />
      <line x1="368" x2="378" y1="206" style="clip-path:url(#clipPath1); fill:none;" y2="209" />
      <line x1="383" x2="392" y1="210" style="clip-path:url(#clipPath1); fill:none;" y2="213" />
      <line x1="397" x2="407" y1="214" style="clip-path:url(#clipPath1); fill:none;" y2="217" />
      <line x1="412" x2="421" y1="218" style="clip-path:url(#clipPath1); fill:none;" y2="221" />
      <line x1="426" x2="436" y1="222" style="clip-path:url(#clipPath1); fill:none;" y2="225" />
      <line x1="440" x2="450" y1="226" style="clip-path:url(#clipPath1); fill:none;" y2="229" />
      <line x1="455" x2="460" y1="231" style="clip-path:url(#clipPath1); fill:none;" y2="232" />
      <line x1="222" x2="220" y1="150" style="clip-path:url(#clipPath1); fill:none;" y2="149" />
      <line x1="216" x2="207" y1="147" style="clip-path:url(#clipPath1); fill:none;" y2="142" />
      <line x1="203" x2="194" y1="139" style="clip-path:url(#clipPath1); fill:none;" y2="134" />
      <line x1="190" x2="181" y1="132" style="clip-path:url(#clipPath1); fill:none;" y2="127" />
      <line x1="177" x2="168" y1="124" style="clip-path:url(#clipPath1); fill:none;" y2="120" />
      <line x1="164" x2="155" y1="117" style="clip-path:url(#clipPath1); fill:none;" y2="112" />
      <line x1="151" x2="142" y1="110" style="clip-path:url(#clipPath1); fill:none;" y2="105" />
      <line x1="137" x2="129" y1="102" style="clip-path:url(#clipPath1); fill:none;" y2="98" />
      <line x1="124" x2="116" y1="95" style="clip-path:url(#clipPath1); fill:none;" y2="90" />
      <line x1="111" x2="103" y1="88" style="clip-path:url(#clipPath1); fill:none;" y2="83" />
      <line x1="308" x2="309" y1="150" style="clip-path:url(#clipPath1); fill:none;" y2="150" />
      <line x1="313" x2="322" y1="147" style="clip-path:url(#clipPath1); fill:none;" y2="143" />
      <line x1="327" x2="336" y1="141" style="clip-path:url(#clipPath1); fill:none;" y2="136" />
      <line x1="340" x2="349" y1="134" style="clip-path:url(#clipPath1); fill:none;" y2="130" />
      <line x1="354" x2="363" y1="127" style="clip-path:url(#clipPath1); fill:none;" y2="123" />
      <line x1="367" x2="376" y1="121" style="clip-path:url(#clipPath1); fill:none;" y2="116" />
      <line x1="381" x2="390" y1="114" style="clip-path:url(#clipPath1); fill:none;" y2="110" />
      <line x1="394" x2="403" y1="107" style="clip-path:url(#clipPath1); fill:none;" y2="103" />
      <line x1="407" x2="416" y1="101" style="clip-path:url(#clipPath1); fill:none;" y2="96" />
      <line x1="421" x2="430" y1="94" style="clip-path:url(#clipPath1); fill:none;" y2="90" />
      <line x1="434" x2="443" y1="87" style="clip-path:url(#clipPath1); fill:none;" y2="83" />
      <line x1="220" x2="220" y1="213" style="clip-path:url(#clipPath1); fill:none;" y2="213" />
      <line x1="218" x2="210" y1="215" style="clip-path:url(#clipPath1); fill:none;" y2="222" />
      <line x1="207" x2="199" y1="225" style="clip-path:url(#clipPath1); fill:none;" y2="232" />
      <line x1="195" x2="188" y1="235" style="clip-path:url(#clipPath1); fill:none;" y2="242" />
      <line x1="184" x2="177" y1="245" style="clip-path:url(#clipPath1); fill:none;" y2="252" />
      <line x1="173" x2="165" y1="255" style="clip-path:url(#clipPath1); fill:none;" y2="261" />
      <line x1="162" x2="154" y1="265" style="clip-path:url(#clipPath1); fill:none;" y2="271" />
      <line x1="150" x2="143" y1="275" style="clip-path:url(#clipPath1); fill:none;" y2="281" />
      <line x1="139" x2="132" y1="285" style="clip-path:url(#clipPath1); fill:none;" y2="291" />
      <line x1="128" x2="122" y1="295" style="clip-path:url(#clipPath1); fill:none;" y2="300" />
      <line x1="265" x2="265" y1="150" style="clip-path:url(#clipPath1); fill:none;" y2="145" />
      <line x1="265" x2="265" y1="140" style="clip-path:url(#clipPath1); fill:none;" y2="130" />
      <line x1="265" x2="265" y1="125" style="clip-path:url(#clipPath1); fill:none;" y2="115" />
      <line x1="265" x2="265" y1="110" style="clip-path:url(#clipPath1); fill:none;" y2="100" />
      <line x1="265" x2="265" y1="95" style="clip-path:url(#clipPath1); fill:none;" y2="85" />
      <line x1="360" x2="373" y1="312" style="clip-path:url(#clipPath1); fill:none;" y2="312" />
      <line x1="360" x2="369" y1="312" style="clip-path:url(#clipPath1); fill:none;" y2="303" />
      <line x1="260" x2="265" y1="300" style="clip-path:url(#clipPath1); fill:none;" y2="288" />
      <line x1="260" x2="255" y1="300" style="clip-path:url(#clipPath1); fill:none;" y2="288" />
      <line x1="460" x2="450" y1="232" style="clip-path:url(#clipPath1); fill:none;" y2="224" />
      <line x1="460" x2="447" y1="232" style="clip-path:url(#clipPath1); fill:none;" y2="234" />
      <line x1="103" x2="111" y1="83" style="clip-path:url(#clipPath1); fill:none;" y2="93" />
      <line x1="103" x2="116" y1="83" style="clip-path:url(#clipPath1); fill:none;" y2="85" />
      <line x1="443" x2="430" y1="83" style="clip-path:url(#clipPath1); fill:none;" y2="84" />
      <line x1="443" x2="434" y1="83" style="clip-path:url(#clipPath1); fill:none;" y2="93" />
      <line x1="122" x2="134" y1="300" style="clip-path:url(#clipPath1); fill:none;" y2="296" />
      <line x1="122" x2="128" y1="300" style="clip-path:url(#clipPath1); fill:none;" y2="288" />
      <line x1="265" x2="260" y1="83" style="clip-path:url(#clipPath1); fill:none;" y2="95" />
      <line x1="265" x2="270" y1="83" style="clip-path:url(#clipPath1); fill:none;" y2="95" />
    </g>
  </g>
</svg>
