<?xml version="1.0" encoding="UTF-8"?>

<!DOCTYPE svg PUBLIC '-//W3C//DTD SVG 20001102//EN' 'http://www.w3.org/TR/2000/CR-SVG-20001102/DTD/svg-20001102.dtd'>
<svg style="fill-opacity:1; color-interpolation:sRGB; color-rendering:auto; text-rendering:auto; stroke:black; stroke-linecap:square; stroke-miterlimit:10; stroke-opacity:1; shape-rendering:auto; fill:black; stroke-dasharray:none; font-weight:normal; stroke-width:1; font-family:&apos;Lucida Sans&apos;; font-style:normal; stroke-linejoin:miter; font-size:12; image-rendering:auto; stroke-dashoffset:0;" width="659" height="481">
  <!--Generated by the Batik Graphics2D SVG Generator-->
  <defs id="genericDefs" />
  <g>
    <defs id="defs1">
      <clipPath clipPathUnits="userSpaceOnUse" id="clipPath1">
        <path d="M0 0 L659 0 L659 481 L0 481 L0 0 Z" />
      </clipPath>
      <clipPath clipPathUnits="userSpaceOnUse" id="clipPath2">
        <path d="M276 20 L276 116 L458 116 L458 20 Z" />
      </clipPath>
      <clipPath clipPathUnits="userSpaceOnUse" id="clipPath3">
        <path d="M277 21 L277 35 L458 35 L458 21 Z" />
      </clipPath>
      <clipPath clipPathUnits="userSpaceOnUse" id="clipPath4">
        <path d="M276 47 L276 64 L458 64 L458 47 Z" />
      </clipPath>
      <clipPath clipPathUnits="userSpaceOnUse" id="clipPath5">
        <path d="M278 49 L278 63 L457 63 L457 49 Z" />
      </clipPath>
      <clipPath clipPathUnits="userSpaceOnUse" id="clipPath6">
        <path d="M276 89 L276 106 L458 106 L458 89 Z" />
      </clipPath>
      <clipPath clipPathUnits="userSpaceOnUse" id="clipPath7">
        <path d="M278 91 L278 105 L457 105 L457 91 Z" />
      </clipPath>
      <clipPath clipPathUnits="userSpaceOnUse" id="clipPath8">
        <path d="M248 170 L248 276 L378 276 L378 170 Z" />
      </clipPath>
      <clipPath clipPathUnits="userSpaceOnUse" id="clipPath9">
        <path d="M249 171 L249 185 L378 185 L378 171 Z" />
      </clipPath>
      <clipPath clipPathUnits="userSpaceOnUse" id="clipPath10">
        <path d="M248 223 L248 266 L378 266 L378 223 Z" />
      </clipPath>
      <clipPath clipPathUnits="userSpaceOnUse" id="clipPath11">
        <path d="M250 225 L250 265 L377 265 L377 225 Z" />
      </clipPath>
      <clipPath clipPathUnits="userSpaceOnUse" id="clipPath12">
        <path d="M476 170 L476 266 L646 266 L646 170 Z" />
      </clipPath>
      <clipPath clipPathUnits="userSpaceOnUse" id="clipPath13">
        <path d="M477 171 L477 185 L646 185 L646 171 Z" />
      </clipPath>
      <clipPath clipPathUnits="userSpaceOnUse" id="clipPath14">
        <path d="M476 197 L476 214 L646 214 L646 197 Z" />
      </clipPath>
      <clipPath clipPathUnits="userSpaceOnUse" id="clipPath15">
        <path d="M478 199 L478 213 L645 213 L645 199 Z" />
      </clipPath>
      <clipPath clipPathUnits="userSpaceOnUse" id="clipPath16">
        <path d="M476 239 L476 256 L646 256 L646 239 Z" />
      </clipPath>
      <clipPath clipPathUnits="userSpaceOnUse" id="clipPath17">
        <path d="M478 241 L478 255 L645 255 L645 241 Z" />
      </clipPath>
      <clipPath clipPathUnits="userSpaceOnUse" id="clipPath18">
        <path d="M36 170 L36 298 L198 298 L198 170 Z" />
      </clipPath>
      <clipPath clipPathUnits="userSpaceOnUse" id="clipPath19">
        <path d="M37 171 L37 185 L198 185 L198 171 Z" />
      </clipPath>
      <clipPath clipPathUnits="userSpaceOnUse" id="clipPath20">
        <path d="M36 197 L36 214 L198 214 L198 197 Z" />
      </clipPath>
      <clipPath clipPathUnits="userSpaceOnUse" id="clipPath21">
        <path d="M38 199 L38 213 L197 213 L197 199 Z" />
      </clipPath>
      <clipPath clipPathUnits="userSpaceOnUse" id="clipPath22">
        <path d="M36 239 L36 288 L198 288 L198 239 Z" />
      </clipPath>
      <clipPath clipPathUnits="userSpaceOnUse" id="clipPath23">
        <path d="M38 241 L38 287 L197 287 L197 241 Z" />
      </clipPath>
      <clipPath clipPathUnits="userSpaceOnUse" id="clipPath24">
        <path d="M36 20 L36 113 L154 113 L154 20 Z" />
      </clipPath>
      <clipPath clipPathUnits="userSpaceOnUse" id="clipPath25">
        <path d="M37 21 L37 35 L154 35 L154 21 Z" />
      </clipPath>
      <clipPath clipPathUnits="userSpaceOnUse" id="clipPath26">
        <path d="M36 73 L36 103 L154 103 L154 73 Z" />
      </clipPath>
      <clipPath clipPathUnits="userSpaceOnUse" id="clipPath27">
        <path d="M38 75 L38 102 L153 102 L153 75 Z" />
      </clipPath>
      <clipPath clipPathUnits="userSpaceOnUse" id="clipPath28">
        <path d="M36 340 L36 468 L158 468 L158 340 Z" />
      </clipPath>
      <clipPath clipPathUnits="userSpaceOnUse" id="clipPath29">
        <path d="M37 341 L37 355 L158 355 L158 341 Z" />
      </clipPath>
      <clipPath clipPathUnits="userSpaceOnUse" id="clipPath30">
        <path d="M36 367 L36 384 L158 384 L158 367 Z" />
      </clipPath>
      <clipPath clipPathUnits="userSpaceOnUse" id="clipPath31">
        <path d="M38 369 L38 383 L157 383 L157 369 Z" />
      </clipPath>
      <clipPath clipPathUnits="userSpaceOnUse" id="clipPath32">
        <path d="M36 409 L36 458 L158 458 L158 409 Z" />
      </clipPath>
      <clipPath clipPathUnits="userSpaceOnUse" id="clipPath33">
        <path d="M38 411 L38 457 L157 457 L157 411 Z" />
      </clipPath>
      <clipPath clipPathUnits="userSpaceOnUse" id="clipPath34">
        <path d="M232 345 L232 454 L570 454 L570 345 Z" />
      </clipPath>
      <clipPath clipPathUnits="userSpaceOnUse" id="clipPath35">
        <path d="M233 346 L233 360 L570 360 L570 346 Z" />
      </clipPath>
      <clipPath clipPathUnits="userSpaceOnUse" id="clipPath36">
        <path d="M232 372 L232 389 L570 389 L570 372 Z" />
      </clipPath>
      <clipPath clipPathUnits="userSpaceOnUse" id="clipPath37">
        <path d="M234 374 L234 388 L569 388 L569 374 Z" />
      </clipPath>
      <clipPath clipPathUnits="userSpaceOnUse" id="clipPath38">
        <path d="M232 401 L232 444 L570 444 L570 401 Z" />
      </clipPath>
      <clipPath clipPathUnits="userSpaceOnUse" id="clipPath39">
        <path d="M234 403 L234 443 L569 443 L569 403 Z" />
      </clipPath>
    </defs>
    <g style="fill:rgb(0,0,130); stroke:rgb(0,0,130);">
      <line x1="260" x2="156" y1="67" style="clip-path:url(#clipPath1); fill:none;" y2="67" />
      <line x1="120" x2="326" y1="170" style="clip-path:url(#clipPath1); fill:none;" y2="118" />
      <line x1="460" x2="380" y1="227" style="clip-path:url(#clipPath1); fill:none;" y2="227" />
      <line x1="393" x2="554" y1="118" style="clip-path:url(#clipPath1); fill:none;" y2="170" />
      <line x1="100" x2="100" y1="340" style="clip-path:url(#clipPath1); fill:none;" y2="300" />
      <line x1="232" x2="160" y1="400" style="clip-path:url(#clipPath1); fill:none;" y2="400" />
      <polygon style="clip-path:url(#clipPath1); stroke:none;" points=" 260 67 252 71 244 67 252 63" />
      <polygon style="fill:none; clip-path:url(#clipPath1);" points=" 260 67 252 71 244 67 252 63" />
      <line x1="252" x2="260" y1="63" style="clip-path:url(#clipPath1); fill:none;" y2="67" />
      <line x1="156" x2="168" y1="67" style="clip-path:url(#clipPath1); fill:none;" y2="72" />
      <line x1="156" x2="168" y1="67" style="clip-path:url(#clipPath1); fill:none;" y2="62" />
      <polygon style="clip-path:url(#clipPath1); stroke:none;" points=" 120 170 127 164 136 166 129 172" />
      <polygon style="fill:none; clip-path:url(#clipPath1);" points=" 120 170 127 164 136 166 129 172" />
      <line x1="129" x2="120" y1="172" style="clip-path:url(#clipPath1); fill:none;" y2="170" />
      <line x1="326" x2="313" y1="118" style="clip-path:url(#clipPath1); fill:none;" y2="116" />
      <line x1="326" x2="316" y1="118" style="clip-path:url(#clipPath1); fill:none;" y2="126" />
      <text x="229" y="128" style="clip-path:url(#clipPath1); font-family:sans-serif; stroke:none;">0..*
      </text>
      <polygon style="clip-path:url(#clipPath1); font-family:sans-serif; stroke:none;" points=" 460 227 452 231 444 227 452 223" />
      <polygon style="fill:none; clip-path:url(#clipPath1); font-family:sans-serif;" points=" 460 227 452 231 444 227 452 223" />
      <line x1="452" x2="460" y1="223" style="clip-path:url(#clipPath1); fill:none; font-family:sans-serif;" y2="227" />
      <line x1="380" x2="392" y1="227" style="clip-path:url(#clipPath1); fill:none; font-family:sans-serif;" y2="232" />
      <line x1="380" x2="392" y1="227" style="clip-path:url(#clipPath1); fill:none; font-family:sans-serif;" y2="222" />
      <polygon style="clip-path:url(#clipPath1); font-family:sans-serif; stroke:none;" points=" 393 118 402 117 408 123 399 124" />
      <polygon style="fill:none; clip-path:url(#clipPath1); font-family:sans-serif;" points=" 393 118 402 117 408 123 399 124" />
      <line x1="399" x2="393" y1="124" style="clip-path:url(#clipPath1); fill:none; font-family:sans-serif;" y2="118" />
      <line x1="554" x2="544" y1="170" style="clip-path:url(#clipPath1); fill:none; font-family:sans-serif;" y2="162" />
      <line x1="554" x2="541" y1="170" style="clip-path:url(#clipPath1); fill:none; font-family:sans-serif;" y2="171" />
      <polygon style="clip-path:url(#clipPath1); font-family:sans-serif; stroke:none;" points=" 100 340 96 332 100 324 104 332" />
      <polygon style="fill:none; clip-path:url(#clipPath1); font-family:sans-serif;" points=" 100 340 96 332 100 324 104 332" />
      <line x1="104" x2="100" y1="332" style="clip-path:url(#clipPath1); fill:none; font-family:sans-serif;" y2="340" />
      <line x1="100" x2="95" y1="300" style="clip-path:url(#clipPath1); fill:none; font-family:sans-serif;" y2="312" />
      <line x1="100" x2="105" y1="300" style="clip-path:url(#clipPath1); fill:none; font-family:sans-serif;" y2="312" />
      <text x="472" y="163" style="clip-path:url(#clipPath1); font-family:sans-serif; stroke:none;">0..*
      </text>
      <text x="70" y="310" style="clip-path:url(#clipPath1); font-family:sans-serif; stroke:none;">0..*
      </text>
      <polygon style="clip-path:url(#clipPath1); font-family:sans-serif; stroke:none;" points=" 232 400 224 404 216 400 224 396" />
      <polygon style="fill:none; clip-path:url(#clipPath1); font-family:sans-serif;" points=" 232 400 224 404 216 400 224 396" />
      <line x1="224" x2="232" y1="396" style="clip-path:url(#clipPath1); fill:none; font-family:sans-serif;" y2="400" />
      <line x1="160" x2="172" y1="400" style="clip-path:url(#clipPath1); fill:none; font-family:sans-serif;" y2="405" />
      <line x1="160" x2="172" y1="400" style="clip-path:url(#clipPath1); fill:none; font-family:sans-serif;" y2="395" />
      <text x="168" y="393" style="clip-path:url(#clipPath1); font-family:sans-serif; stroke:none;">0..*
      </text>
      <polygon points=" 271 23 460 23 460 118 271 118 271 37 263 37 263 29 271 29 271 23" style="fill:navy; clip-path:url(#clipPath1); font-family:sans-serif; stroke:none;" />
      <polygon points=" 268 20 457 20 457 115 268 115 268 34 260 34 260 26 268 26 268 20" style="fill:white; clip-path:url(#clipPath1); font-family:sans-serif; stroke:none;" />
      <polygon points=" 268 20 457 20 457 115 268 115 268 34 260 34 260 26 268 26 268 20" style="fill:none; clip-path:url(#clipPath1); font-family:sans-serif; stroke:black;" />
      <line x1="268" x2="276" y1="34" style="clip-path:url(#clipPath1); fill:none; font-family:sans-serif; stroke:black;" y2="34" />
      <line x1="276" x2="276" y1="34" style="clip-path:url(#clipPath1); fill:none; font-family:sans-serif; stroke:black;" y2="26" />
      <line x1="276" x2="268" y1="26" style="clip-path:url(#clipPath1); fill:none; font-family:sans-serif; stroke:black;" y2="26" />
    </g>
    <g style="font-weight:bold; font-family:sans-serif;">
      <text x="336" y="31" style="clip-path:url(#clipPath3); stroke:none;">data::Car
      </text>
    </g>
    <g style="font-family:sans-serif;">
      <line x1="276" x2="457" y1="40" style="clip-path:url(#clipPath2); fill:none;" y2="40" />
    </g>
    <g style="font-family:sans-serif;">
      <text x="282" y="59" style="clip-path:url(#clipPath5); stroke:none;">-mods:vector &lt; data::Mod * &gt;
      </text>
    </g>
    <g style="font-family:sans-serif;">
      <line x1="276" x2="457" y1="69" style="clip-path:url(#clipPath2); fill:none;" y2="69" />
      <line x1="276" x2="457" y1="82" style="clip-path:url(#clipPath2); fill:none;" y2="82" />
    </g>
    <g style="font-family:sans-serif;">
      <text x="282" y="101" style="clip-path:url(#clipPath7); stroke:none;"> carType:CarType
      </text>
    </g>
    <g style="fill:navy; font-family:sans-serif; stroke:navy;">
      <polygon style="clip-path:url(#clipPath1); stroke:none;" points=" 243 173 380 173 380 278 243 278 243 187 235 187 235 179 243 179 243 173" />
      <polygon style="fill:white; clip-path:url(#clipPath1); stroke:none;" points=" 240 170 377 170 377 275 240 275 240 184 232 184 232 176 240 176 240 170" />
      <polygon style="fill:none; clip-path:url(#clipPath1); stroke:black;" points=" 240 170 377 170 377 275 240 275 240 184 232 184 232 176 240 176 240 170" />
      <line x1="240" x2="248" y1="184" style="clip-path:url(#clipPath1); fill:none; stroke:black;" y2="184" />
      <line x1="248" x2="248" y1="184" style="clip-path:url(#clipPath1); fill:none; stroke:black;" y2="176" />
      <line x1="248" x2="240" y1="176" style="clip-path:url(#clipPath1); fill:none; stroke:black;" y2="176" />
    </g>
    <g style="font-weight:bold; font-family:sans-serif;">
      <text x="261" y="181" style="clip-path:url(#clipPath9); stroke:none;">data::ModType
      </text>
    </g>
    <g style="font-family:sans-serif;">
      <line x1="248" x2="377" y1="190" style="clip-path:url(#clipPath8); fill:none;" y2="190" />
      <line x1="248" x2="377" y1="203" style="clip-path:url(#clipPath8); fill:none;" y2="203" />
      <line x1="248" x2="377" y1="216" style="clip-path:url(#clipPath8); fill:none;" y2="216" />
    </g>
    <g style="font-family:sans-serif;">
      <text x="254" y="235" style="clip-path:url(#clipPath11); stroke:none;"> name:string
      </text>
      <text x="254" y="248" style="clip-path:url(#clipPath11); stroke:none;"> mountPoint:string
      </text>
      <text x="254" y="261" style="clip-path:url(#clipPath11); stroke:none;"> amount:float
      </text>
    </g>
    <g style="fill:navy; font-family:sans-serif; stroke:navy;">
      <polygon style="clip-path:url(#clipPath1); stroke:none;" points=" 471 173 648 173 648 268 471 268 471 187 463 187 463 179 471 179 471 173" />
      <polygon style="fill:white; clip-path:url(#clipPath1); stroke:none;" points=" 468 170 645 170 645 265 468 265 468 184 460 184 460 176 468 176 468 170" />
      <polygon style="fill:none; clip-path:url(#clipPath1); stroke:black;" points=" 468 170 645 170 645 265 468 265 468 184 460 184 460 176 468 176 468 170" />
      <line x1="468" x2="476" y1="184" style="clip-path:url(#clipPath1); fill:none; stroke:black;" y2="184" />
      <line x1="476" x2="476" y1="184" style="clip-path:url(#clipPath1); fill:none; stroke:black;" y2="176" />
      <line x1="476" x2="468" y1="176" style="clip-path:url(#clipPath1); fill:none; stroke:black;" y2="176" />
    </g>
    <g style="font-weight:bold; font-family:sans-serif;">
      <text x="526" y="181" style="clip-path:url(#clipPath13); stroke:none;">data::Mod
      </text>
    </g>
    <g style="font-family:sans-serif;">
      <line x1="476" x2="645" y1="190" style="clip-path:url(#clipPath12); fill:none;" y2="190" />
    </g>
    <g style="font-family:sans-serif;">
      <text x="482" y="209" style="clip-path:url(#clipPath15); stroke:none;">-level:int
      </text>
    </g>
    <g style="font-family:sans-serif;">
      <line x1="476" x2="645" y1="219" style="clip-path:url(#clipPath12); fill:none;" y2="219" />
      <line x1="476" x2="645" y1="232" style="clip-path:url(#clipPath12); fill:none;" y2="232" />
    </g>
    <g style="font-family:sans-serif;">
      <text x="482" y="251" style="clip-path:url(#clipPath17); stroke:none;"> modType:data::ModType
      </text>
    </g>
    <g style="fill:navy; font-family:sans-serif; stroke:navy;">
      <polygon style="clip-path:url(#clipPath1); stroke:none;" points=" 31 173 200 173 200 300 31 300 31 187 23 187 23 179 31 179 31 173" />
      <polygon style="fill:white; clip-path:url(#clipPath1); stroke:none;" points=" 28 170 197 170 197 297 28 297 28 184 20 184 20 176 28 176 28 170" />
      <polygon style="fill:none; clip-path:url(#clipPath1); stroke:black;" points=" 28 170 197 170 197 297 28 297 28 184 20 184 20 176 28 176 28 170" />
      <line x1="28" x2="36" y1="184" style="clip-path:url(#clipPath1); fill:none; stroke:black;" y2="184" />
      <line x1="36" x2="36" y1="184" style="clip-path:url(#clipPath1); fill:none; stroke:black;" y2="176" />
      <line x1="36" x2="28" y1="176" style="clip-path:url(#clipPath1); fill:none; stroke:black;" y2="176" />
    </g>
    <g style="font-weight:bold; font-family:sans-serif;">
      <text x="76" y="181" style="clip-path:url(#clipPath19); stroke:none;">data::Player
      </text>
    </g>
    <g style="font-family:sans-serif;">
      <line x1="36" x2="197" y1="190" style="clip-path:url(#clipPath18); fill:none;" y2="190" />
    </g>
    <g style="font-family:sans-serif;">
      <text x="42" y="209" style="clip-path:url(#clipPath21); stroke:none;">-cars:vector &lt; Car * &gt;
      </text>
    </g>
    <g style="font-family:sans-serif;">
      <line x1="36" x2="197" y1="219" style="clip-path:url(#clipPath18); fill:none;" y2="219" />
      <line x1="36" x2="197" y1="232" style="clip-path:url(#clipPath18); fill:none;" y2="232" />
    </g>
    <g style="font-family:sans-serif;">
      <text x="42" y="251" style="clip-path:url(#clipPath23); stroke:none;"> name:string
      </text>
      <text x="42" y="264" style="clip-path:url(#clipPath23); stroke:none;"> password:string
      </text>
    </g>
    <g style="fill:navy; font-family:sans-serif; stroke:navy;">
      <polygon style="clip-path:url(#clipPath1); stroke:none;" points=" 31 23 156 23 156 115 31 115 31 37 23 37 23 29 31 29 31 23" />
      <polygon style="fill:white; clip-path:url(#clipPath1); stroke:none;" points=" 28 20 153 20 153 112 28 112 28 34 20 34 20 26 28 26 28 20" />
      <polygon style="fill:none; clip-path:url(#clipPath1); stroke:black;" points=" 28 20 153 20 153 112 28 112 28 34 20 34 20 26 28 26 28 20" />
      <line x1="28" x2="36" y1="34" style="clip-path:url(#clipPath1); fill:none; stroke:black;" y2="34" />
      <line x1="36" x2="36" y1="34" style="clip-path:url(#clipPath1); fill:none; stroke:black;" y2="26" />
      <line x1="36" x2="28" y1="26" style="clip-path:url(#clipPath1); fill:none; stroke:black;" y2="26" />
    </g>
    <g style="font-weight:bold; font-family:sans-serif;">
      <text x="47" y="31" style="clip-path:url(#clipPath25); stroke:none;">data::CarType
      </text>
    </g>
    <g style="font-family:sans-serif;">
      <line x1="36" x2="153" y1="40" style="clip-path:url(#clipPath24); fill:none;" y2="40" />
      <line x1="36" x2="153" y1="53" style="clip-path:url(#clipPath24); fill:none;" y2="53" />
      <line x1="36" x2="153" y1="66" style="clip-path:url(#clipPath24); fill:none;" y2="66" />
    </g>
    <g style="font-family:sans-serif;">
      <text x="42" y="85" style="clip-path:url(#clipPath27); stroke:none;"> modelFile:string
      </text>
      <text x="42" y="98" style="clip-path:url(#clipPath27); stroke:none;"> name:string
      </text>
    </g>
    <g style="fill:navy; font-family:sans-serif; stroke:navy;">
      <polygon style="clip-path:url(#clipPath1); stroke:none;" points=" 31 343 160 343 160 470 31 470 31 357 23 357 23 349 31 349 31 343" />
      <polygon style="fill:white; clip-path:url(#clipPath1); stroke:none;" points=" 28 340 157 340 157 467 28 467 28 354 20 354 20 346 28 346 28 340" />
      <polygon style="fill:none; clip-path:url(#clipPath1); stroke:black;" points=" 28 340 157 340 157 467 28 467 28 354 20 354 20 346 28 346 28 340" />
      <line x1="28" x2="36" y1="354" style="clip-path:url(#clipPath1); fill:none; stroke:black;" y2="354" />
      <line x1="36" x2="36" y1="354" style="clip-path:url(#clipPath1); fill:none; stroke:black;" y2="346" />
      <line x1="36" x2="28" y1="346" style="clip-path:url(#clipPath1); fill:none; stroke:black;" y2="346" />
    </g>
    <g style="font-weight:bold; font-family:sans-serif;">
      <text x="59" y="351" style="clip-path:url(#clipPath29); stroke:none;">data::Gang
      </text>
    </g>
    <g style="font-family:sans-serif;">
      <line x1="36" x2="157" y1="360" style="clip-path:url(#clipPath28); fill:none;" y2="360" />
    </g>
    <g style="font-family:sans-serif;">
      <text x="42" y="379" style="clip-path:url(#clipPath31); stroke:none;">-players:vector &lt; data::Player * &gt;
      </text>
    </g>
    <g style="font-family:sans-serif;">
      <line x1="36" x2="157" y1="389" style="clip-path:url(#clipPath28); fill:none;" y2="389" />
      <line x1="36" x2="157" y1="402" style="clip-path:url(#clipPath28); fill:none;" y2="402" />
    </g>
    <g style="font-family:sans-serif;">
      <text x="42" y="421" style="clip-path:url(#clipPath33); stroke:none;"> name:string
      </text>
    </g>
    <g style="fill:navy; font-family:sans-serif; stroke:navy;">
      <rect x="235" y="348" width="337" style="clip-path:url(#clipPath1); stroke:none;" height="108" />
      <rect x="232" y="345" width="337" style="clip-path:url(#clipPath1); fill:white; stroke:none;" height="108" />
      <rect x="232" y="345" width="337" style="clip-path:url(#clipPath1); fill:none; stroke:black;" height="108" />
    </g>
    <g style="font-weight:bold; font-family:sans-serif;">
      <text x="342" y="356" style="clip-path:url(#clipPath35); stroke:none;">data::BrothaData
      </text>
    </g>
    <g style="font-family:sans-serif;">
      <line x1="232" x2="569" y1="365" style="clip-path:url(#clipPath34); fill:none;" y2="365" />
    </g>
    <g style="font-family:sans-serif;">
      <text x="238" y="384" style="clip-path:url(#clipPath37); stroke:none;">-gangs:vector &lt; data::Gang * &gt;
      </text>
    </g>
    <g style="font-family:sans-serif;">
      <line x1="232" x2="569" y1="394" style="clip-path:url(#clipPath34); fill:none;" y2="394" />
    </g>
    <g style="font-family:sans-serif;">
      <text x="238" y="413" style="clip-path:url(#clipPath39); stroke:none;">+validatePlayer(player:string,password:string):void
      </text>
      <text x="238" y="426" style="clip-path:url(#clipPath39); stroke:none;">+load(filename:string):BrothaData *
      </text>
      <text x="238" y="439" style="clip-path:url(#clipPath39); stroke:none;">+save(filename:string):void
      </text>
    </g>
  </g>
</svg>
