<?xml version="1.0" encoding="UTF-8"?>

<!DOCTYPE svg PUBLIC '-//W3C//DTD SVG 20001102//EN' 'http://www.w3.org/TR/2000/CR-SVG-20001102/DTD/svg-20001102.dtd'>
<svg style="fill-opacity:1; color-interpolation:sRGB; color-rendering:auto; text-rendering:auto; stroke:black; stroke-linecap:square; stroke-miterlimit:10; stroke-opacity:1; shape-rendering:auto; fill:black; stroke-dasharray:none; font-weight:normal; stroke-width:1; font-family:&apos;Lucida Sans&apos;; font-style:normal; stroke-linejoin:miter; font-size:12; image-rendering:auto; stroke-dashoffset:0;" width="553" height="381">
  <!--Generated by the Batik Graphics2D SVG Generator-->
  <defs id="genericDefs" />
  <g>
    <defs id="defs1">
      <clipPath clipPathUnits="userSpaceOnUse" id="clipPath1">
        <path d="M0 0 L553 0 L553 381 L0 381 L0 0 Z" />
      </clipPath>
      <clipPath clipPathUnits="userSpaceOnUse" id="clipPath2">
        <path d="M404 241 L404 368 L540 368 L540 241 Z" />
      </clipPath>
      <clipPath clipPathUnits="userSpaceOnUse" id="clipPath3">
        <path d="M405 242 L405 256 L540 256 L540 242 Z" />
      </clipPath>
      <clipPath clipPathUnits="userSpaceOnUse" id="clipPath4">
        <path d="M404 294 L404 358 L540 358 L540 294 Z" />
      </clipPath>
      <clipPath clipPathUnits="userSpaceOnUse" id="clipPath5">
        <path d="M406 296 L406 357 L539 357 L539 296 Z" />
      </clipPath>
      <clipPath clipPathUnits="userSpaceOnUse" id="clipPath6">
        <path d="M20 241 L20 365 L278 365 L278 241 Z" />
      </clipPath>
      <clipPath clipPathUnits="userSpaceOnUse" id="clipPath7">
        <path d="M21 242 L21 256 L278 256 L278 242 Z" />
      </clipPath>
      <clipPath clipPathUnits="userSpaceOnUse" id="clipPath8">
        <path d="M20 281 L20 350 L278 350 L278 281 Z" />
      </clipPath>
      <clipPath clipPathUnits="userSpaceOnUse" id="clipPath9">
        <path d="M22 283 L22 349 L277 349 L277 283 Z" />
      </clipPath>
      <clipPath clipPathUnits="userSpaceOnUse" id="clipPath10">
        <path d="M202 20 L202 165 L427 165 L427 20 Z" />
      </clipPath>
      <clipPath clipPathUnits="userSpaceOnUse" id="clipPath11">
        <path d="M203 21 L203 35 L427 35 L427 21 Z" />
      </clipPath>
      <clipPath clipPathUnits="userSpaceOnUse" id="clipPath12">
        <path d="M202 47 L202 64 L427 64 L427 47 Z" />
      </clipPath>
      <clipPath clipPathUnits="userSpaceOnUse" id="clipPath13">
        <path d="M204 49 L204 63 L426 63 L426 49 Z" />
      </clipPath>
      <clipPath clipPathUnits="userSpaceOnUse" id="clipPath14">
        <path d="M202 76 L202 106 L427 106 L427 76 Z" />
      </clipPath>
      <clipPath clipPathUnits="userSpaceOnUse" id="clipPath15">
        <path d="M204 78 L204 105 L426 105 L426 78 Z" />
      </clipPath>
      <clipPath clipPathUnits="userSpaceOnUse" id="clipPath16">
        <path d="M202 118 L202 155 L427 155 L427 118 Z" />
      </clipPath>
      <clipPath clipPathUnits="userSpaceOnUse" id="clipPath17">
        <path d="M204 120 L204 154 L426 154 L426 120 Z" />
      </clipPath>
    </defs>
    <g style="fill:rgb(0,0,130); stroke:rgb(0,0,130);">
      <line x1="280" x2="388" y1="304" style="clip-path:url(#clipPath1); fill:none;" y2="304" />
      <line x1="331" x2="465" y1="167" style="clip-path:url(#clipPath1); fill:none;" y2="241" />
      <line x1="233" x2="233" y1="241" style="clip-path:url(#clipPath1); fill:none;" y2="167" />
      <polygon style="fill:white; clip-path:url(#clipPath1); stroke:none;" points=" 280 304 288 300 296 304 288 308" />
      <polygon style="fill:none; clip-path:url(#clipPath1);" points=" 280 304 288 300 296 304 288 308" />
      <line x1="288" x2="280" y1="308" style="clip-path:url(#clipPath1); fill:none;" y2="304" />
      <line x1="388" x2="376" y1="304" style="clip-path:url(#clipPath1); fill:none;" y2="299" />
      <line x1="388" x2="376" y1="304" style="clip-path:url(#clipPath1); fill:none;" y2="309" />
      <text x="358" y="297" style="clip-path:url(#clipPath1); font-family:sans-serif; stroke:none;">0..*
      </text>
      <polygon points=" 331 167 340 167 345 175 336 174" style="fill:white; clip-path:url(#clipPath1); font-family:sans-serif; stroke:none;" />
      <polygon style="fill:none; clip-path:url(#clipPath1); font-family:sans-serif;" points=" 331 167 340 167 345 175 336 174" />
      <line x1="336" x2="331" y1="174" style="clip-path:url(#clipPath1); fill:none; font-family:sans-serif;" y2="167" />
      <line x1="465" x2="457" y1="241" style="clip-path:url(#clipPath1); fill:none; font-family:sans-serif;" y2="231" />
      <line x1="465" x2="452" y1="241" style="clip-path:url(#clipPath1); fill:none; font-family:sans-serif;" y2="240" />
      <text x="403" y="234" style="clip-path:url(#clipPath1); font-family:sans-serif; stroke:none;">0..1
      </text>
      <polygon points=" 233 241 229 233 233 225 237 233" style="fill:white; clip-path:url(#clipPath1); font-family:sans-serif; stroke:none;" />
      <polygon style="fill:none; clip-path:url(#clipPath1); font-family:sans-serif;" points=" 233 241 229 233 233 225 237 233" />
      <line x1="237" x2="233" y1="233" style="clip-path:url(#clipPath1); fill:none; font-family:sans-serif;" y2="241" />
      <line x1="233" x2="228" y1="167" style="clip-path:url(#clipPath1); fill:none; font-family:sans-serif;" y2="179" />
      <line x1="233" x2="238" y1="167" style="clip-path:url(#clipPath1); fill:none; font-family:sans-serif;" y2="179" />
      <text x="203" y="177" style="clip-path:url(#clipPath1); font-family:sans-serif; stroke:none;">0..*
      </text>
      <polygon points=" 399 244 542 244 542 370 399 370 399 258 391 258 391 250 399 250 399 244" style="fill:navy; clip-path:url(#clipPath1); font-family:sans-serif; stroke:none;" />
      <polygon points=" 396 241 539 241 539 367 396 367 396 255 388 255 388 247 396 247 396 241" style="fill:white; clip-path:url(#clipPath1); font-family:sans-serif; stroke:none;" />
      <polygon points=" 396 241 539 241 539 367 396 367 396 255 388 255 388 247 396 247 396 241" style="fill:none; clip-path:url(#clipPath1); font-family:sans-serif; stroke:black;" />
      <line x1="396" x2="404" y1="255" style="clip-path:url(#clipPath1); fill:none; font-family:sans-serif; stroke:black;" y2="255" />
      <line x1="404" x2="404" y1="255" style="clip-path:url(#clipPath1); fill:none; font-family:sans-serif; stroke:black;" y2="247" />
      <line x1="404" x2="396" y1="247" style="clip-path:url(#clipPath1); fill:none; font-family:sans-serif; stroke:black;" y2="247" />
    </g>
    <g style="font-weight:bold; font-family:sans-serif;">
      <text x="449" y="252" style="clip-path:url(#clipPath3); stroke:none;">Object
      </text>
    </g>
    <g style="font-family:sans-serif;">
      <line x1="404" x2="539" y1="261" style="clip-path:url(#clipPath2); fill:none;" y2="261" />
      <line x1="404" x2="539" y1="274" style="clip-path:url(#clipPath2); fill:none;" y2="274" />
      <line x1="404" x2="539" y1="287" style="clip-path:url(#clipPath2); fill:none;" y2="287" />
    </g>
    <g style="font-family:sans-serif;">
      <text x="410" y="306" style="clip-path:url(#clipPath5); stroke:none;"> position:Vec3f
      </text>
      <text x="410" y="319" style="clip-path:url(#clipPath5); stroke:none;"> velocity:Vec3f
      </text>
      <text x="410" y="332" style="clip-path:url(#clipPath5); stroke:none;"> health:float
      </text>
      <text x="410" y="345" style="clip-path:url(#clipPath5); stroke:none;"> maxHealth:float
      </text>
    </g>
    <g style="fill:navy; font-family:sans-serif; stroke:navy;">
      <rect x="23" y="244" width="257" style="clip-path:url(#clipPath1); stroke:none;" height="123" />
      <rect x="20" y="241" width="257" style="clip-path:url(#clipPath1); fill:white; stroke:none;" height="123" />
      <rect x="20" y="241" width="257" style="clip-path:url(#clipPath1); fill:none; stroke:black;" height="123" />
    </g>
    <g style="font-weight:bold; font-family:sans-serif;">
      <text x="110" y="252" style="clip-path:url(#clipPath7); stroke:none;">GameLogic
      </text>
    </g>
    <g style="font-family:sans-serif;">
      <line x1="20" x2="277" y1="261" style="clip-path:url(#clipPath6); fill:none;" y2="261" />
      <line x1="20" x2="277" y1="274" style="clip-path:url(#clipPath6); fill:none;" y2="274" />
    </g>
    <g style="font-family:sans-serif;">
      <text x="26" y="293" style="clip-path:url(#clipPath9); stroke:none;">+addPlayer(player:Player *):void
      </text>
      <text x="26" y="306" style="clip-path:url(#clipPath9); stroke:none;">+removePlayer(player:Player *):void
      </text>
      <text x="26" y="319" style="clip-path:url(#clipPath9); stroke:none;">+addObject(object:Object *):void
      </text>
      <text x="26" y="332" style="clip-path:url(#clipPath9); stroke:none;">+removeObject(object:Object *):void
      </text>
      <text x="26" y="345" style="clip-path:url(#clipPath9); stroke:none;">+update():void
      </text>
    </g>
    <g style="fill:navy; font-family:sans-serif; stroke:navy;">
      <polygon style="clip-path:url(#clipPath1); stroke:none;" points=" 197 23 429 23 429 167 197 167 197 37 189 37 189 29 197 29 197 23" />
      <polygon style="fill:white; clip-path:url(#clipPath1); stroke:none;" points=" 194 20 426 20 426 164 194 164 194 34 186 34 186 26 194 26 194 20" />
      <polygon style="fill:none; clip-path:url(#clipPath1); stroke:black;" points=" 194 20 426 20 426 164 194 164 194 34 186 34 186 26 194 26 194 20" />
      <line x1="194" x2="202" y1="34" style="clip-path:url(#clipPath1); fill:none; stroke:black;" y2="34" />
      <line x1="202" x2="202" y1="34" style="clip-path:url(#clipPath1); fill:none; stroke:black;" y2="26" />
      <line x1="202" x2="194" y1="26" style="clip-path:url(#clipPath1); fill:none; stroke:black;" y2="26" />
    </g>
    <g style="font-weight:bold; font-family:sans-serif;">
      <text x="293" y="31" style="clip-path:url(#clipPath11); stroke:none;">Player
      </text>
    </g>
    <g style="font-family:sans-serif;">
      <line x1="202" x2="426" y1="40" style="clip-path:url(#clipPath10); fill:none;" y2="40" />
    </g>
    <g style="font-family:sans-serif;">
      <text x="208" y="59" style="clip-path:url(#clipPath13); stroke:none;">-avatar:Object *
      </text>
    </g>
    <g style="font-family:sans-serif;">
      <line x1="202" x2="426" y1="69" style="clip-path:url(#clipPath10); fill:none;" y2="69" />
    </g>
    <g style="font-family:sans-serif;">
      <text x="208" y="88" style="clip-path:url(#clipPath15); stroke:none;">+getAvatar():Object *
      </text>
      <text x="208" y="101" style="clip-path:url(#clipPath15); stroke:none;">+setAvatar(avatar:Object):void
      </text>
    </g>
    <g style="font-family:sans-serif;">
      <line x1="202" x2="426" y1="111" style="clip-path:url(#clipPath10); fill:none;" y2="111" />
    </g>
    <g style="font-family:sans-serif;">
      <text x="208" y="130" style="clip-path:url(#clipPath17); stroke:none;"> name:string
      </text>
      <text x="208" y="143" style="clip-path:url(#clipPath17); stroke:none;"> id:UID
      </text>
    </g>
  </g>
</svg>
