<?xml version="1.0" encoding="UTF-8"?>

<!DOCTYPE svg PUBLIC '-//W3C//DTD SVG 20001102//EN' 'http://www.w3.org/TR/2000/CR-SVG-20001102/DTD/svg-20001102.dtd'>
<svg style="fill-opacity:1; color-interpolation:sRGB; color-rendering:auto; text-rendering:auto; stroke:black; stroke-linecap:square; stroke-miterlimit:10; stroke-opacity:1; shape-rendering:auto; fill:black; stroke-dasharray:none; font-weight:normal; stroke-width:1; font-family:&apos;Lucida Sans&apos;; font-style:normal; stroke-linejoin:miter; font-size:12; image-rendering:auto; stroke-dashoffset:0;" width="701" height="451">
  <!--Generated by the Batik Graphics2D SVG Generator-->
  <defs id="genericDefs" />
  <g>
    <defs id="defs1">
      <clipPath clipPathUnits="userSpaceOnUse" id="clipPath1">
        <path d="M0 0 L701 0 L701 451 L0 451 L0 0 Z" />
      </clipPath>
      <clipPath clipPathUnits="userSpaceOnUse" id="clipPath2">
        <path d="M20 20 L20 113 L177 113 L177 20 Z" />
      </clipPath>
      <clipPath clipPathUnits="userSpaceOnUse" id="clipPath3">
        <path d="M21 21 L21 35 L177 35 L177 21 Z" />
      </clipPath>
      <clipPath clipPathUnits="userSpaceOnUse" id="clipPath4">
        <path d="M20 60 L20 103 L177 103 L177 60 Z" />
      </clipPath>
      <clipPath clipPathUnits="userSpaceOnUse" id="clipPath5">
        <path d="M22 62 L22 102 L176 102 L176 62 Z" />
      </clipPath>
      <clipPath clipPathUnits="userSpaceOnUse" id="clipPath6">
        <path d="M289 20 L289 168 L565 168 L565 20 Z" />
      </clipPath>
      <clipPath clipPathUnits="userSpaceOnUse" id="clipPath7">
        <path d="M290 21 L290 35 L565 35 L565 21 Z" />
      </clipPath>
      <clipPath clipPathUnits="userSpaceOnUse" id="clipPath8">
        <path d="M289 60 L289 116 L565 116 L565 60 Z" />
      </clipPath>
      <clipPath clipPathUnits="userSpaceOnUse" id="clipPath9">
        <path d="M291 62 L291 115 L564 115 L564 62 Z" />
      </clipPath>
      <clipPath clipPathUnits="userSpaceOnUse" id="clipPath10">
        <path d="M289 128 L289 158 L565 158 L565 128 Z" />
      </clipPath>
      <clipPath clipPathUnits="userSpaceOnUse" id="clipPath11">
        <path d="M291 130 L291 157 L564 157 L564 130 Z" />
      </clipPath>
      <clipPath clipPathUnits="userSpaceOnUse" id="clipPath12">
        <path d="M434 247 L434 325 L688 325 L688 247 Z" />
      </clipPath>
      <clipPath clipPathUnits="userSpaceOnUse" id="clipPath13">
        <path d="M435 248 L435 275 L688 275 L688 248 Z" />
      </clipPath>
      <clipPath clipPathUnits="userSpaceOnUse" id="clipPath14">
        <path d="M434 300 L434 317 L688 317 L688 300 Z" />
      </clipPath>
      <clipPath clipPathUnits="userSpaceOnUse" id="clipPath15">
        <path d="M436 302 L436 316 L687 316 L687 302 Z" />
      </clipPath>
      <clipPath clipPathUnits="userSpaceOnUse" id="clipPath16">
        <path d="M139 247 L139 325 L412 325 L412 247 Z" />
      </clipPath>
      <clipPath clipPathUnits="userSpaceOnUse" id="clipPath17">
        <path d="M140 248 L140 275 L412 275 L412 248 Z" />
      </clipPath>
      <clipPath clipPathUnits="userSpaceOnUse" id="clipPath18">
        <path d="M139 300 L139 317 L412 317 L412 300 Z" />
      </clipPath>
      <clipPath clipPathUnits="userSpaceOnUse" id="clipPath19">
        <path d="M141 302 L141 316 L411 316 L411 302 Z" />
      </clipPath>
      <clipPath clipPathUnits="userSpaceOnUse" id="clipPath20">
        <path d="M376 387 L376 438 L459 438 L459 387 Z" />
      </clipPath>
      <clipPath clipPathUnits="userSpaceOnUse" id="clipPath21">
        <path d="M377 388 L377 402 L459 402 L459 388 Z" />
      </clipPath>
    </defs>
    <g style="fill:blue; stroke:blue;">
      <line x1="500" x2="500" y1="170" style="clip-path:url(#clipPath1); fill:none;" y2="247" />
      <line x1="320" x2="320" y1="170" style="clip-path:url(#clipPath1); fill:none;" y2="247" />
      <line x1="179" x2="273" y1="67" style="clip-path:url(#clipPath1); fill:none;" y2="67" />
      <line x1="447" x2="447" y1="387" style="clip-path:url(#clipPath1); fill:none; stroke:teal;" y2="385" />
      <line x1="447" x2="447" y1="380" style="clip-path:url(#clipPath1); fill:none; stroke:teal;" y2="370" />
      <line x1="447" x2="447" y1="365" style="clip-path:url(#clipPath1); fill:none; stroke:teal;" y2="355" />
      <line x1="447" x2="447" y1="350" style="clip-path:url(#clipPath1); fill:none; stroke:teal;" y2="340" />
      <line x1="447" x2="447" y1="335" style="clip-path:url(#clipPath1); fill:none; stroke:teal;" y2="327" />
      <line x1="395" x2="395" y1="387" style="clip-path:url(#clipPath1); fill:none; stroke:teal;" y2="385" />
      <line x1="395" x2="395" y1="380" style="clip-path:url(#clipPath1); fill:none; stroke:teal;" y2="370" />
      <line x1="395" x2="395" y1="365" style="clip-path:url(#clipPath1); fill:none; stroke:teal;" y2="355" />
      <line x1="395" x2="395" y1="350" style="clip-path:url(#clipPath1); fill:none; stroke:teal;" y2="340" />
      <line x1="395" x2="395" y1="335" style="clip-path:url(#clipPath1); fill:none; stroke:teal;" y2="327" />
      <line x1="500" x2="505" y1="247" style="clip-path:url(#clipPath1); fill:none;" y2="235" />
      <line x1="500" x2="495" y1="247" style="clip-path:url(#clipPath1); fill:none;" y2="235" />
      <text x="484" y="240" style="clip-path:url(#clipPath1); font-family:sans-serif; stroke:none;">1
      </text>
      <line x1="320" x2="325" y1="247" style="clip-path:url(#clipPath1); fill:none; font-family:sans-serif;" y2="235" />
      <line x1="320" x2="315" y1="247" style="clip-path:url(#clipPath1); fill:none; font-family:sans-serif;" y2="235" />
      <text x="304" y="240" style="clip-path:url(#clipPath1); font-family:sans-serif; stroke:none;">1
      </text>
      <line x1="273" x2="261" y1="67" style="clip-path:url(#clipPath1); fill:none; font-family:sans-serif;" y2="62" />
      <line x1="273" x2="261" y1="67" style="clip-path:url(#clipPath1); fill:none; font-family:sans-serif;" y2="72" />
      <text x="257" y="60" style="clip-path:url(#clipPath1); font-family:sans-serif; stroke:none;">1
      </text>
      <polygon points=" 447 327 453 345 441 345" style="fill:white; clip-path:url(#clipPath1); font-family:sans-serif; stroke:none;" />
      <polygon points=" 447 327 453 345 441 345" style="fill:none; clip-path:url(#clipPath1); font-family:sans-serif; stroke:teal;" />
      <line x1="441" x2="447" y1="345" style="clip-path:url(#clipPath1); fill:none; font-family:sans-serif; stroke:teal;" y2="327" />
      <polygon points=" 395 327 401 345 389 345" style="fill:white; clip-path:url(#clipPath1); font-family:sans-serif; stroke:none;" />
      <polygon points=" 395 327 401 345 389 345" style="fill:none; clip-path:url(#clipPath1); font-family:sans-serif; stroke:teal;" />
      <line x1="389" x2="395" y1="345" style="clip-path:url(#clipPath1); fill:none; font-family:sans-serif; stroke:teal;" y2="327" />
      <rect x="23" y="23" width="156" style="clip-path:url(#clipPath1); fill:navy; font-family:sans-serif; stroke:none;" height="92" />
      <rect x="20" y="20" width="156" style="clip-path:url(#clipPath1); fill:white; font-family:sans-serif; stroke:none;" height="92" />
      <rect x="20" y="20" width="156" style="clip-path:url(#clipPath1); fill:none; font-family:sans-serif; stroke:black;" height="92" />
    </g>
    <g style="font-weight:bold; font-family:sans-serif;">
      <text x="53" y="31" style="clip-path:url(#clipPath3); stroke:none;">ServerSocket
      </text>
    </g>
    <g style="font-family:sans-serif;">
      <line x1="20" x2="176" y1="40" style="clip-path:url(#clipPath2); fill:none;" y2="40" />
      <line x1="20" x2="176" y1="53" style="clip-path:url(#clipPath2); fill:none;" y2="53" />
    </g>
    <g style="font-family:sans-serif;">
      <text x="26" y="72" style="clip-path:url(#clipPath5); stroke:none;">+ServerSocket(port:int)
      </text>
      <text x="26" y="85" style="clip-path:url(#clipPath5); stroke:none;">+~ServerSocket()
      </text>
      <text x="26" y="98" style="clip-path:url(#clipPath5); stroke:none;">+accept():Socket *
      </text>
    </g>
    <g style="fill:navy; font-family:sans-serif; stroke:navy;">
      <polygon style="clip-path:url(#clipPath1); stroke:none;" points=" 284 23 567 23 567 170 284 170 284 37 276 37 276 29 284 29 284 23" />
      <polygon style="fill:white; clip-path:url(#clipPath1); stroke:none;" points=" 281 20 564 20 564 167 281 167 281 34 273 34 273 26 281 26 281 20" />
      <polygon style="fill:none; clip-path:url(#clipPath1); stroke:black;" points=" 281 20 564 20 564 167 281 167 281 34 273 34 273 26 281 26 281 20" />
      <line x1="281" x2="289" y1="34" style="clip-path:url(#clipPath1); fill:none; stroke:black;" y2="34" />
      <line x1="289" x2="289" y1="34" style="clip-path:url(#clipPath1); fill:none; stroke:black;" y2="26" />
      <line x1="289" x2="281" y1="26" style="clip-path:url(#clipPath1); fill:none; stroke:black;" y2="26" />
    </g>
    <g style="font-weight:bold; font-family:sans-serif;">
      <text x="404" y="31" style="clip-path:url(#clipPath7); stroke:none;">Socket
      </text>
    </g>
    <g style="font-family:sans-serif;">
      <line x1="289" x2="564" y1="40" style="clip-path:url(#clipPath6); fill:none;" y2="40" />
      <line x1="289" x2="564" y1="53" style="clip-path:url(#clipPath6); fill:none;" y2="53" />
    </g>
    <g style="font-family:sans-serif;">
      <text x="295" y="72" style="clip-path:url(#clipPath9); stroke:none;">+Socket(hostname:string,port:int)
      </text>
      <text x="295" y="85" style="clip-path:url(#clipPath9); stroke:none;">+write(buffer:const void *,size:int):int
      </text>
      <text x="295" y="98" style="clip-path:url(#clipPath9); stroke:none;">+read(buffer:void *,size:int):void
      </text>
      <text x="295" y="111" style="clip-path:url(#clipPath9); stroke:none;">+close():void
      </text>
    </g>
    <g style="font-family:sans-serif;">
      <line x1="289" x2="564" y1="121" style="clip-path:url(#clipPath6); fill:none;" y2="121" />
    </g>
    <g style="font-family:sans-serif;">
      <text x="295" y="140" style="clip-path:url(#clipPath11); stroke:none;"> inputStream:InputStream *
      </text>
      <text x="295" y="153" style="clip-path:url(#clipPath11); stroke:none;"> outputStream:OutputStream *
      </text>
    </g>
    <g style="fill:navy; font-family:sans-serif; stroke:navy;">
      <rect x="437" y="250" width="253" style="clip-path:url(#clipPath1); stroke:none;" height="77" />
      <rect x="434" y="247" width="253" style="clip-path:url(#clipPath1); fill:white; stroke:none;" height="77" />
      <rect x="434" y="247" width="253" style="clip-path:url(#clipPath1); fill:none; stroke:black;" height="77" />
    </g>
    <g style="font-family:sans-serif;">
      <text x="533" y="258" style="clip-path:url(#clipPath13); stroke:none;">interface
      </text>
      <text x="511" y="271" style="clip-path:url(#clipPath13); font-style:italic; stroke:none; font-weight:bold;">OutputStream
      </text>
    </g>
    <g style="font-family:sans-serif;">
      <line x1="434" x2="687" y1="280" style="clip-path:url(#clipPath12); fill:none;" y2="280" />
      <line x1="434" x2="687" y1="293" style="clip-path:url(#clipPath12); fill:none;" y2="293" />
    </g>
    <g style="font-family:sans-serif; font-style:italic;">
      <text x="440" y="312" style="clip-path:url(#clipPath15); stroke:none;">+write(buffer:void *,size:int):void
      </text>
    </g>
    <g style="fill:navy; font-family:sans-serif; stroke:navy;">
      <rect x="142" y="250" width="272" style="clip-path:url(#clipPath1); stroke:none;" height="77" />
      <rect x="139" y="247" width="272" style="clip-path:url(#clipPath1); fill:white; stroke:none;" height="77" />
      <rect x="139" y="247" width="272" style="clip-path:url(#clipPath1); fill:none; stroke:black;" height="77" />
    </g>
    <g style="font-family:sans-serif;">
      <text x="248" y="258" style="clip-path:url(#clipPath17); stroke:none;">interface
      </text>
      <text x="232" y="271" style="clip-path:url(#clipPath17); font-style:italic; stroke:none; font-weight:bold;">InputStream
      </text>
    </g>
    <g style="font-family:sans-serif;">
      <line x1="139" x2="411" y1="280" style="clip-path:url(#clipPath16); fill:none;" y2="280" />
      <line x1="139" x2="411" y1="293" style="clip-path:url(#clipPath16); fill:none;" y2="293" />
    </g>
    <g style="font-family:sans-serif; font-style:italic;">
      <text x="145" y="312" style="clip-path:url(#clipPath19); stroke:none;">+read(buffer:const void *,size:int):void
      </text>
    </g>
    <g style="fill:navy; font-family:sans-serif; stroke:navy;">
      <rect x="379" y="390" width="82" style="clip-path:url(#clipPath1); stroke:none;" height="50" />
      <rect x="376" y="387" width="82" style="clip-path:url(#clipPath1); fill:white; stroke:none;" height="50" />
      <rect x="376" y="387" width="82" style="clip-path:url(#clipPath1); fill:none; stroke:black;" height="50" />
    </g>
    <g style="font-weight:bold; font-family:sans-serif;">
      <text x="381" y="398" style="clip-path:url(#clipPath21); stroke:none;">ByteBuffer
      </text>
    </g>
    <g style="font-family:sans-serif;">
      <line x1="376" x2="458" y1="407" style="clip-path:url(#clipPath20); fill:none;" y2="407" />
      <line x1="376" x2="458" y1="420" style="clip-path:url(#clipPath20); fill:none;" y2="420" />
    </g>
  </g>
</svg>
