<?xml version="1.0" encoding="UTF-8"?>

<!DOCTYPE svg PUBLIC '-//W3C//DTD SVG 20001102//EN' 'http://www.w3.org/TR/2000/CR-SVG-20001102/DTD/svg-20001102.dtd'>
<svg style="fill-opacity:1; color-interpolation:sRGB; color-rendering:auto; text-rendering:auto; stroke:black; stroke-linecap:square; stroke-miterlimit:10; stroke-opacity:1; shape-rendering:auto; fill:black; stroke-dasharray:none; font-weight:normal; stroke-width:1; font-family:&apos;Lucida Sans&apos;; font-style:normal; stroke-linejoin:miter; font-size:12; image-rendering:auto; stroke-dashoffset:0;" width="157" height="117">
  <!--Generated by the Batik Graphics2D SVG Generator-->
  <defs id="genericDefs" />
  <g>
    <defs id="defs1">
      <clipPath clipPathUnits="userSpaceOnUse" id="clipPath1">
        <path d="M0 0 L157 0 L157 117 L0 117 L0 0 Z" />
      </clipPath>
      <clipPath clipPathUnits="userSpaceOnUse" id="clipPath2">
        <path d="M10 10 L10 104 L144 104 L144 10 Z" />
      </clipPath>
      <clipPath clipPathUnits="userSpaceOnUse" id="clipPath3">
        <path d="M11 11 L11 25 L144 25 L144 11 Z" />
      </clipPath>
      <clipPath clipPathUnits="userSpaceOnUse" id="clipPath4">
        <path d="M10 50 L10 80 L144 80 L144 50 Z" />
      </clipPath>
      <clipPath clipPathUnits="userSpaceOnUse" id="clipPath5">
        <path d="M12 52 L12 79 L143 79 L143 52 Z" />
      </clipPath>
    </defs>
    <g style="fill:navy; stroke:navy;">
      <rect x="13" y="13" width="133" style="clip-path:url(#clipPath1); stroke:none;" height="93" />
      <rect x="10" y="10" width="133" style="clip-path:url(#clipPath1); fill:white; stroke:none;" height="93" />
      <rect x="10" y="10" width="133" style="clip-path:url(#clipPath1); fill:none; stroke:black;" height="93" />
    </g>
    <g style="font-weight:bold; font-family:sans-serif;">
      <text x="31" y="21" style="clip-path:url(#clipPath3); stroke:none;">ReportServer
      </text>
    </g>
    <g>
      <line x1="10" x2="143" y1="30" style="clip-path:url(#clipPath2); fill:none;" y2="30" />
      <line x1="10" x2="143" y1="43" style="clip-path:url(#clipPath2); fill:none;" y2="43" />
    </g>
    <g style="font-family:sans-serif;">
      <text x="16" y="62" style="clip-path:url(#clipPath5); stroke:none;">+start():bool
      </text>
      <text x="16" y="75" style="clip-path:url(#clipPath5); stroke:none;">+stop():void
      </text>
    </g>
  </g>
</svg>
