<?xml version="1.0" encoding="UTF-8"?>

<!DOCTYPE svg PUBLIC '-//W3C//DTD SVG 20001102//EN' 'http://www.w3.org/TR/2000/CR-SVG-20001102/DTD/svg-20001102.dtd'>
<svg style="fill-opacity:1; color-interpolation:sRGB; color-rendering:auto; text-rendering:auto; stroke:black; stroke-linecap:square; stroke-miterlimit:10; stroke-opacity:1; shape-rendering:auto; fill:black; stroke-dasharray:none; font-weight:normal; stroke-width:1; font-family:&apos;Lucida Sans&apos;; font-style:normal; stroke-linejoin:miter; font-size:12; image-rendering:auto; stroke-dashoffset:0;" width="919" height="350">
  <!--Generated by the Batik Graphics2D SVG Generator-->
  <defs id="genericDefs" />
  <g>
    <defs id="defs1">
      <clipPath clipPathUnits="userSpaceOnUse" id="clipPath1">
        <path d="M0 0 L919 0 L919 350 L0 350 L0 0 Z" />
      </clipPath>
      <clipPath clipPathUnits="userSpaceOnUse" id="clipPath2">
        <path d="M287 143 L287 204 L388 204 L388 143 Z" />
      </clipPath>
      <clipPath clipPathUnits="userSpaceOnUse" id="clipPath3">
        <path d="M291 143 L291 204 L384 204 L384 143 Z" />
      </clipPath>
      <clipPath clipPathUnits="userSpaceOnUse" id="clipPath4">
        <path d="M394 276 L394 337 L495 337 L495 276 Z" />
      </clipPath>
      <clipPath clipPathUnits="userSpaceOnUse" id="clipPath5">
        <path d="M398 276 L398 337 L491 337 L491 276 Z" />
      </clipPath>
      <clipPath clipPathUnits="userSpaceOnUse" id="clipPath6">
        <path d="M62 143 L62 204 L163 204 L163 143 Z" />
      </clipPath>
      <clipPath clipPathUnits="userSpaceOnUse" id="clipPath7">
        <path d="M66 143 L66 204 L159 204 L159 143 Z" />
      </clipPath>
      <clipPath clipPathUnits="userSpaceOnUse" id="clipPath8">
        <path d="M452 143 L452 204 L553 204 L553 143 Z" />
      </clipPath>
      <clipPath clipPathUnits="userSpaceOnUse" id="clipPath9">
        <path d="M456 143 L456 204 L549 204 L549 143 Z" />
      </clipPath>
      <clipPath clipPathUnits="userSpaceOnUse" id="clipPath10">
        <path d="M782 20 L782 81 L883 81 L883 20 Z" />
      </clipPath>
      <clipPath clipPathUnits="userSpaceOnUse" id="clipPath11">
        <path d="M786 20 L786 81 L879 81 L879 20 Z" />
      </clipPath>
      <clipPath clipPathUnits="userSpaceOnUse" id="clipPath12">
        <path d="M741 276 L741 337 L868 337 L868 276 Z" />
      </clipPath>
      <clipPath clipPathUnits="userSpaceOnUse" id="clipPath13">
        <path d="M745 276 L745 337 L864 337 L864 276 Z" />
      </clipPath>
      <clipPath clipPathUnits="userSpaceOnUse" id="clipPath14">
        <path d="M760 143 L760 204 L906 204 L906 143 Z" />
      </clipPath>
      <clipPath clipPathUnits="userSpaceOnUse" id="clipPath15">
        <path d="M764 143 L764 204 L902 204 L902 143 Z" />
      </clipPath>
      <clipPath clipPathUnits="userSpaceOnUse" id="clipPath16">
        <path d="M507 20 L507 81 L608 81 L608 20 Z" />
      </clipPath>
      <clipPath clipPathUnits="userSpaceOnUse" id="clipPath17">
        <path d="M511 20 L511 81 L604 81 L604 20 Z" />
      </clipPath>
    </defs>
    <g style="fill:navy; stroke:navy;">
      <polygon style="clip-path:url(#clipPath1); stroke:none;" points=" 269 146 390 146 390 206 269 206 269 185 248 185 248 173 269 173 269 167 248 167 248 155 269 155 269 146" />
      <polygon style="fill:white; clip-path:url(#clipPath1); stroke:none;" points=" 266 143 387 143 387 203 266 203 266 182 245 182 245 170 266 170 266 164 245 164 245 152 266 152 266 143" />
      <polygon style="fill:none; clip-path:url(#clipPath1); stroke:black;" points=" 266 143 387 143 387 203 266 203 266 182 245 182 245 170 266 170 266 164 245 164 245 152 266 152 266 143" />
      <line x1="266" x2="287" y1="182" style="clip-path:url(#clipPath1); fill:none; stroke:black;" y2="182" />
      <line x1="287" x2="287" y1="182" style="clip-path:url(#clipPath1); fill:none; stroke:black;" y2="170" />
      <line x1="287" x2="266" y1="170" style="clip-path:url(#clipPath1); fill:none; stroke:black;" y2="170" />
      <line x1="266" x2="287" y1="164" style="clip-path:url(#clipPath1); fill:none; stroke:black;" y2="164" />
      <line x1="287" x2="287" y1="164" style="clip-path:url(#clipPath1); fill:none; stroke:black;" y2="152" />
      <line x1="287" x2="266" y1="152" style="clip-path:url(#clipPath1); fill:none; stroke:black;" y2="152" />
    </g>
    <g style="font-family:sans-serif;">
      <text x="306" y="153" style="clip-path:url(#clipPath3); stroke:none;">Data/XML
      </text>
    </g>
    <g style="fill:navy; stroke:navy;">
      <polygon style="clip-path:url(#clipPath1); stroke:none;" points=" 376 279 497 279 497 339 376 339 376 318 355 318 355 306 376 306 376 300 355 300 355 288 376 288 376 279" />
      <polygon style="fill:white; clip-path:url(#clipPath1); stroke:none;" points=" 373 276 494 276 494 336 373 336 373 315 352 315 352 303 373 303 373 297 352 297 352 285 373 285 373 276" />
      <polygon style="fill:none; clip-path:url(#clipPath1); stroke:black;" points=" 373 276 494 276 494 336 373 336 373 315 352 315 352 303 373 303 373 297 352 297 352 285 373 285 373 276" />
      <line x1="373" x2="394" y1="315" style="clip-path:url(#clipPath1); fill:none; stroke:black;" y2="315" />
      <line x1="394" x2="394" y1="315" style="clip-path:url(#clipPath1); fill:none; stroke:black;" y2="303" />
      <line x1="394" x2="373" y1="303" style="clip-path:url(#clipPath1); fill:none; stroke:black;" y2="303" />
      <line x1="373" x2="394" y1="297" style="clip-path:url(#clipPath1); fill:none; stroke:black;" y2="297" />
      <line x1="394" x2="394" y1="297" style="clip-path:url(#clipPath1); fill:none; stroke:black;" y2="285" />
      <line x1="394" x2="373" y1="285" style="clip-path:url(#clipPath1); fill:none; stroke:black;" y2="285" />
    </g>
    <g style="font-family:sans-serif;">
      <text x="418" y="286" style="clip-path:url(#clipPath5); stroke:none;">Network
      </text>
    </g>
    <g style="fill:navy; stroke:navy;">
      <polygon style="clip-path:url(#clipPath1); stroke:none;" points=" 44 146 165 146 165 206 44 206 44 185 23 185 23 173 44 173 44 167 23 167 23 155 44 155 44 146" />
      <polygon style="fill:white; clip-path:url(#clipPath1); stroke:none;" points=" 41 143 162 143 162 203 41 203 41 182 20 182 20 170 41 170 41 164 20 164 20 152 41 152 41 143" />
      <polygon style="fill:none; clip-path:url(#clipPath1); stroke:black;" points=" 41 143 162 143 162 203 41 203 41 182 20 182 20 170 41 170 41 164 20 164 20 152 41 152 41 143" />
      <line x1="41" x2="62" y1="182" style="clip-path:url(#clipPath1); fill:none; stroke:black;" y2="182" />
      <line x1="62" x2="62" y1="182" style="clip-path:url(#clipPath1); fill:none; stroke:black;" y2="170" />
      <line x1="62" x2="41" y1="170" style="clip-path:url(#clipPath1); fill:none; stroke:black;" y2="170" />
      <line x1="41" x2="62" y1="164" style="clip-path:url(#clipPath1); fill:none; stroke:black;" y2="164" />
      <line x1="62" x2="62" y1="164" style="clip-path:url(#clipPath1); fill:none; stroke:black;" y2="152" />
      <line x1="62" x2="41" y1="152" style="clip-path:url(#clipPath1); fill:none; stroke:black;" y2="152" />
    </g>
    <g style="font-family:sans-serif;">
      <text x="70" y="153" style="clip-path:url(#clipPath7); stroke:none;">Report Server
      </text>
    </g>
    <g style="fill:navy; stroke:navy;">
      <polygon style="clip-path:url(#clipPath1); stroke:none;" points=" 434 146 555 146 555 206 434 206 434 185 413 185 413 173 434 173 434 167 413 167 413 155 434 155 434 146" />
      <polygon style="fill:white; clip-path:url(#clipPath1); stroke:none;" points=" 431 143 552 143 552 203 431 203 431 182 410 182 410 170 431 170 431 164 410 164 410 152 431 152 431 143" />
      <polygon style="fill:none; clip-path:url(#clipPath1); stroke:black;" points=" 431 143 552 143 552 203 431 203 431 182 410 182 410 170 431 170 431 164 410 164 410 152 431 152 431 143" />
      <line x1="431" x2="452" y1="182" style="clip-path:url(#clipPath1); fill:none; stroke:black;" y2="182" />
      <line x1="452" x2="452" y1="182" style="clip-path:url(#clipPath1); fill:none; stroke:black;" y2="170" />
      <line x1="452" x2="431" y1="170" style="clip-path:url(#clipPath1); fill:none; stroke:black;" y2="170" />
      <line x1="431" x2="452" y1="164" style="clip-path:url(#clipPath1); fill:none; stroke:black;" y2="164" />
      <line x1="452" x2="452" y1="164" style="clip-path:url(#clipPath1); fill:none; stroke:black;" y2="152" />
      <line x1="452" x2="431" y1="152" style="clip-path:url(#clipPath1); fill:none; stroke:black;" y2="152" />
    </g>
    <g style="font-family:sans-serif;">
      <text x="471" y="153" style="clip-path:url(#clipPath9); stroke:none;">Messages
      </text>
    </g>
    <g style="fill:navy; stroke:navy;">
      <polygon style="clip-path:url(#clipPath1); stroke:none;" points=" 764 23 885 23 885 83 764 83 764 62 743 62 743 50 764 50 764 44 743 44 743 32 764 32 764 23" />
      <polygon style="fill:white; clip-path:url(#clipPath1); stroke:none;" points=" 761 20 882 20 882 80 761 80 761 59 740 59 740 47 761 47 761 41 740 41 740 29 761 29 761 20" />
      <polygon style="fill:none; clip-path:url(#clipPath1); stroke:black;" points=" 761 20 882 20 882 80 761 80 761 59 740 59 740 47 761 47 761 41 740 41 740 29 761 29 761 20" />
      <line x1="761" x2="782" y1="59" style="clip-path:url(#clipPath1); fill:none; stroke:black;" y2="59" />
      <line x1="782" x2="782" y1="59" style="clip-path:url(#clipPath1); fill:none; stroke:black;" y2="47" />
      <line x1="782" x2="761" y1="47" style="clip-path:url(#clipPath1); fill:none; stroke:black;" y2="47" />
      <line x1="761" x2="782" y1="41" style="clip-path:url(#clipPath1); fill:none; stroke:black;" y2="41" />
      <line x1="782" x2="782" y1="41" style="clip-path:url(#clipPath1); fill:none; stroke:black;" y2="29" />
      <line x1="782" x2="761" y1="29" style="clip-path:url(#clipPath1); fill:none; stroke:black;" y2="29" />
    </g>
    <g style="font-family:sans-serif;">
      <text x="810" y="30" style="clip-path:url(#clipPath11); stroke:none;">Thread
      </text>
    </g>
    <g style="fill:navy; stroke:navy;">
      <polygon style="clip-path:url(#clipPath1); stroke:none;" points=" 723 279 870 279 870 339 723 339 723 318 702 318 702 306 723 306 723 300 702 300 702 288 723 288 723 279" />
      <polygon style="fill:white; clip-path:url(#clipPath1); stroke:none;" points=" 720 276 867 276 867 336 720 336 720 315 699 315 699 303 720 303 720 297 699 297 699 285 720 285 720 276" />
      <polygon style="fill:none; clip-path:url(#clipPath1); stroke:black;" points=" 720 276 867 276 867 336 720 336 720 315 699 315 699 303 720 303 720 297 699 297 699 285 720 285 720 276" />
      <line x1="720" x2="741" y1="315" style="clip-path:url(#clipPath1); fill:none; stroke:black;" y2="315" />
      <line x1="741" x2="741" y1="315" style="clip-path:url(#clipPath1); fill:none; stroke:black;" y2="303" />
      <line x1="741" x2="720" y1="303" style="clip-path:url(#clipPath1); fill:none; stroke:black;" y2="303" />
      <line x1="720" x2="741" y1="297" style="clip-path:url(#clipPath1); fill:none; stroke:black;" y2="297" />
      <line x1="741" x2="741" y1="297" style="clip-path:url(#clipPath1); fill:none; stroke:black;" y2="285" />
      <line x1="741" x2="720" y1="285" style="clip-path:url(#clipPath1); fill:none; stroke:black;" y2="285" />
    </g>
    <g style="font-family:sans-serif;">
      <text x="749" y="286" style="clip-path:url(#clipPath13); stroke:none;">&lt;&lt;application&gt;&gt;
      </text>
      <text x="785" y="299" style="clip-path:url(#clipPath13); stroke:none;">Server
      </text>
    </g>
    <g style="fill:navy; stroke:navy;">
      <polygon style="clip-path:url(#clipPath1); stroke:none;" points=" 742 146 908 146 908 206 742 206 742 185 721 185 721 173 742 173 742 167 721 167 721 155 742 155 742 146" />
      <polygon style="fill:white; clip-path:url(#clipPath1); stroke:none;" points=" 739 143 905 143 905 203 739 203 739 182 718 182 718 170 739 170 739 164 718 164 718 152 739 152 739 143" />
      <polygon style="fill:none; clip-path:url(#clipPath1); stroke:black;" points=" 739 143 905 143 905 203 739 203 739 182 718 182 718 170 739 170 739 164 718 164 718 152 739 152 739 143" />
      <line x1="739" x2="760" y1="182" style="clip-path:url(#clipPath1); fill:none; stroke:black;" y2="182" />
      <line x1="760" x2="760" y1="182" style="clip-path:url(#clipPath1); fill:none; stroke:black;" y2="170" />
      <line x1="760" x2="739" y1="170" style="clip-path:url(#clipPath1); fill:none; stroke:black;" y2="170" />
      <line x1="739" x2="760" y1="164" style="clip-path:url(#clipPath1); fill:none; stroke:black;" y2="164" />
      <line x1="760" x2="760" y1="164" style="clip-path:url(#clipPath1); fill:none; stroke:black;" y2="152" />
      <line x1="760" x2="739" y1="152" style="clip-path:url(#clipPath1); fill:none; stroke:black;" y2="152" />
    </g>
    <g style="font-family:sans-serif;">
      <text x="768" y="153" style="clip-path:url(#clipPath15); stroke:none;">Connection Manager
      </text>
    </g>
    <g style="fill:navy; stroke:navy;">
      <polygon style="clip-path:url(#clipPath1); stroke:none;" points=" 489 23 610 23 610 83 489 83 489 62 468 62 468 50 489 50 489 44 468 44 468 32 489 32 489 23" />
      <polygon style="fill:white; clip-path:url(#clipPath1); stroke:none;" points=" 486 20 607 20 607 80 486 80 486 59 465 59 465 47 486 47 486 41 465 41 465 29 486 29 486 20" />
      <polygon style="fill:none; clip-path:url(#clipPath1); stroke:black;" points=" 486 20 607 20 607 80 486 80 486 59 465 59 465 47 486 47 486 41 465 41 465 29 486 29 486 20" />
      <line x1="486" x2="507" y1="59" style="clip-path:url(#clipPath1); fill:none; stroke:black;" y2="59" />
      <line x1="507" x2="507" y1="59" style="clip-path:url(#clipPath1); fill:none; stroke:black;" y2="47" />
      <line x1="507" x2="486" y1="47" style="clip-path:url(#clipPath1); fill:none; stroke:black;" y2="47" />
      <line x1="486" x2="507" y1="41" style="clip-path:url(#clipPath1); fill:none; stroke:black;" y2="41" />
      <line x1="507" x2="507" y1="41" style="clip-path:url(#clipPath1); fill:none; stroke:black;" y2="29" />
      <line x1="507" x2="486" y1="29" style="clip-path:url(#clipPath1); fill:none; stroke:black;" y2="29" />
    </g>
    <g style="font-family:sans-serif;">
      <text x="520" y="30" style="clip-path:url(#clipPath17); stroke:none;">Game Logic
      </text>
    </g>
    <g>
      <line x1="165" x2="165" y1="174" style="clip-path:url(#clipPath1); fill:none;" y2="174" />
      <line x1="170" x2="180" y1="174" style="clip-path:url(#clipPath1); fill:none;" y2="174" />
      <line x1="185" x2="195" y1="174" style="clip-path:url(#clipPath1); fill:none;" y2="174" />
      <line x1="200" x2="210" y1="174" style="clip-path:url(#clipPath1); fill:none;" y2="174" />
      <line x1="215" x2="225" y1="174" style="clip-path:url(#clipPath1); fill:none;" y2="174" />
      <line x1="230" x2="240" y1="174" style="clip-path:url(#clipPath1); fill:none;" y2="174" />
      <line x1="245" x2="245" y1="174" style="clip-path:url(#clipPath1); fill:none;" y2="174" />
      <line x1="92" x2="92" y1="206" style="clip-path:url(#clipPath1); fill:none;" y2="206" />
      <line x1="97" x2="107" y1="207" style="clip-path:url(#clipPath1); fill:none;" y2="209" />
      <line x1="112" x2="121" y1="210" style="clip-path:url(#clipPath1); fill:none;" y2="213" />
      <line x1="126" x2="136" y1="214" style="clip-path:url(#clipPath1); fill:none;" y2="216" />
      <line x1="141" x2="151" y1="217" style="clip-path:url(#clipPath1); fill:none;" y2="219" />
      <line x1="155" x2="165" y1="220" style="clip-path:url(#clipPath1); fill:none;" y2="223" />
      <line x1="170" x2="180" y1="224" style="clip-path:url(#clipPath1); fill:none;" y2="226" />
      <line x1="185" x2="194" y1="227" style="clip-path:url(#clipPath1); fill:none;" y2="229" />
      <line x1="199" x2="209" y1="230" style="clip-path:url(#clipPath1); fill:none;" y2="233" />
      <line x1="214" x2="224" y1="234" style="clip-path:url(#clipPath1); fill:none;" y2="236" />
      <line x1="229" x2="238" y1="237" style="clip-path:url(#clipPath1); fill:none;" y2="239" />
      <line x1="243" x2="253" y1="240" style="clip-path:url(#clipPath1); fill:none;" y2="243" />
      <line x1="258" x2="268" y1="244" style="clip-path:url(#clipPath1); fill:none;" y2="246" />
      <line x1="272" x2="282" y1="247" style="clip-path:url(#clipPath1); fill:none;" y2="249" />
      <line x1="287" x2="297" y1="250" style="clip-path:url(#clipPath1); fill:none;" y2="253" />
      <line x1="302" x2="311" y1="254" style="clip-path:url(#clipPath1); fill:none;" y2="256" />
      <line x1="316" x2="326" y1="257" style="clip-path:url(#clipPath1); fill:none;" y2="259" />
      <line x1="331" x2="341" y1="260" style="clip-path:url(#clipPath1); fill:none;" y2="263" />
      <line x1="346" x2="355" y1="264" style="clip-path:url(#clipPath1); fill:none;" y2="266" />
      <line x1="360" x2="370" y1="267" style="clip-path:url(#clipPath1); fill:none;" y2="269" />
      <line x1="375" x2="385" y1="270" style="clip-path:url(#clipPath1); fill:none;" y2="272" />
      <line x1="389" x2="399" y1="274" style="clip-path:url(#clipPath1); fill:none;" y2="276" />
      <line x1="794" x2="794" y1="276" style="clip-path:url(#clipPath1); fill:none;" y2="276" />
      <line x1="794" x2="794" y1="275" style="clip-path:url(#clipPath1); fill:none;" y2="265" />
      <line x1="794" x2="794" y1="260" style="clip-path:url(#clipPath1); fill:none;" y2="250" />
      <line x1="794" x2="794" y1="245" style="clip-path:url(#clipPath1); fill:none;" y2="235" />
      <line x1="794" x2="794" y1="230" style="clip-path:url(#clipPath1); fill:none;" y2="220" />
      <line x1="794" x2="794" y1="215" style="clip-path:url(#clipPath1); fill:none;" y2="206" />
      <line x1="718" x2="715" y1="174" style="clip-path:url(#clipPath1); fill:none;" y2="174" />
      <line x1="710" x2="700" y1="174" style="clip-path:url(#clipPath1); fill:none;" y2="174" />
      <line x1="695" x2="685" y1="174" style="clip-path:url(#clipPath1); fill:none;" y2="174" />
      <line x1="680" x2="670" y1="174" style="clip-path:url(#clipPath1); fill:none;" y2="174" />
      <line x1="665" x2="655" y1="174" style="clip-path:url(#clipPath1); fill:none;" y2="174" />
      <line x1="650" x2="640" y1="174" style="clip-path:url(#clipPath1); fill:none;" y2="174" />
      <line x1="635" x2="625" y1="174" style="clip-path:url(#clipPath1); fill:none;" y2="174" />
      <line x1="620" x2="610" y1="174" style="clip-path:url(#clipPath1); fill:none;" y2="174" />
      <line x1="605" x2="595" y1="174" style="clip-path:url(#clipPath1); fill:none;" y2="174" />
      <line x1="590" x2="580" y1="174" style="clip-path:url(#clipPath1); fill:none;" y2="174" />
      <line x1="575" x2="565" y1="174" style="clip-path:url(#clipPath1); fill:none;" y2="174" />
      <line x1="560" x2="555" y1="174" style="clip-path:url(#clipPath1); fill:none;" y2="174" />
      <line x1="756" x2="750" y1="206" style="clip-path:url(#clipPath1); fill:none;" y2="207" />
      <line x1="745" x2="736" y1="208" style="clip-path:url(#clipPath1); fill:none;" y2="211" />
      <line x1="731" x2="721" y1="212" style="clip-path:url(#clipPath1); fill:none;" y2="214" />
      <line x1="716" x2="706" y1="215" style="clip-path:url(#clipPath1); fill:none;" y2="217" />
      <line x1="701" x2="692" y1="218" style="clip-path:url(#clipPath1); fill:none;" y2="221" />
      <line x1="687" x2="677" y1="222" style="clip-path:url(#clipPath1); fill:none;" y2="224" />
      <line x1="672" x2="662" y1="225" style="clip-path:url(#clipPath1); fill:none;" y2="227" />
      <line x1="658" x2="648" y1="228" style="clip-path:url(#clipPath1); fill:none;" y2="231" />
      <line x1="643" x2="633" y1="232" style="clip-path:url(#clipPath1); fill:none;" y2="234" />
      <line x1="628" x2="619" y1="235" style="clip-path:url(#clipPath1); fill:none;" y2="237" />
      <line x1="614" x2="604" y1="238" style="clip-path:url(#clipPath1); fill:none;" y2="241" />
      <line x1="599" x2="589" y1="242" style="clip-path:url(#clipPath1); fill:none;" y2="244" />
      <line x1="584" x2="575" y1="245" style="clip-path:url(#clipPath1); fill:none;" y2="247" />
      <line x1="570" x2="560" y1="248" style="clip-path:url(#clipPath1); fill:none;" y2="251" />
      <line x1="555" x2="545" y1="252" style="clip-path:url(#clipPath1); fill:none;" y2="254" />
      <line x1="540" x2="531" y1="255" style="clip-path:url(#clipPath1); fill:none;" y2="257" />
      <line x1="526" x2="516" y1="258" style="clip-path:url(#clipPath1); fill:none;" y2="261" />
      <line x1="511" x2="501" y1="262" style="clip-path:url(#clipPath1); fill:none;" y2="264" />
      <line x1="497" x2="487" y1="265" style="clip-path:url(#clipPath1); fill:none;" y2="267" />
      <line x1="482" x2="472" y1="268" style="clip-path:url(#clipPath1); fill:none;" y2="270" />
      <line x1="467" x2="458" y1="272" style="clip-path:url(#clipPath1); fill:none;" y2="274" />
      <line x1="453" x2="448" y1="275" style="clip-path:url(#clipPath1); fill:none;" y2="276" />
      <line x1="812" x2="812" y1="143" style="clip-path:url(#clipPath1); fill:none;" y2="143" />
      <line x1="812" x2="812" y1="140" style="clip-path:url(#clipPath1); fill:none;" y2="130" />
      <line x1="812" x2="812" y1="125" style="clip-path:url(#clipPath1); fill:none;" y2="115" />
      <line x1="812" x2="812" y1="110" style="clip-path:url(#clipPath1); fill:none;" y2="100" />
      <line x1="812" x2="812" y1="95" style="clip-path:url(#clipPath1); fill:none;" y2="85" />
      <line x1="492" x2="484" y1="83" style="clip-path:url(#clipPath1); fill:none;" y2="86" />
      <line x1="480" x2="470" y1="87" style="clip-path:url(#clipPath1); fill:none;" y2="90" />
      <line x1="466" x2="456" y1="92" style="clip-path:url(#clipPath1); fill:none;" y2="95" />
      <line x1="451" x2="442" y1="97" style="clip-path:url(#clipPath1); fill:none;" y2="100" />
      <line x1="437" x2="428" y1="102" style="clip-path:url(#clipPath1); fill:none;" y2="105" />
      <line x1="423" x2="413" y1="107" style="clip-path:url(#clipPath1); fill:none;" y2="110" />
      <line x1="409" x2="399" y1="112" style="clip-path:url(#clipPath1); fill:none;" y2="115" />
      <line x1="395" x2="385" y1="116" style="clip-path:url(#clipPath1); fill:none;" y2="120" />
      <line x1="380" x2="371" y1="121" style="clip-path:url(#clipPath1); fill:none;" y2="125" />
      <line x1="366" x2="357" y1="126" style="clip-path:url(#clipPath1); fill:none;" y2="129" />
      <line x1="352" x2="343" y1="131" style="clip-path:url(#clipPath1); fill:none;" y2="134" />
      <line x1="338" x2="328" y1="136" style="clip-path:url(#clipPath1); fill:none;" y2="139" />
      <line x1="324" x2="317" y1="141" style="clip-path:url(#clipPath1); fill:none;" y2="143" />
      <line x1="564" x2="570" y1="83" style="clip-path:url(#clipPath1); fill:none;" y2="85" />
      <line x1="575" x2="584" y1="86" style="clip-path:url(#clipPath1); fill:none;" y2="89" />
      <line x1="589" x2="598" y1="90" style="clip-path:url(#clipPath1); fill:none;" y2="93" />
      <line x1="603" x2="613" y1="95" style="clip-path:url(#clipPath1); fill:none;" y2="98" />
      <line x1="618" x2="627" y1="99" style="clip-path:url(#clipPath1); fill:none;" y2="102" />
      <line x1="632" x2="642" y1="103" style="clip-path:url(#clipPath1); fill:none;" y2="106" />
      <line x1="646" x2="656" y1="108" style="clip-path:url(#clipPath1); fill:none;" y2="110" />
      <line x1="661" x2="670" y1="112" style="clip-path:url(#clipPath1); fill:none;" y2="115" />
      <line x1="675" x2="685" y1="116" style="clip-path:url(#clipPath1); fill:none;" y2="119" />
      <line x1="690" x2="699" y1="120" style="clip-path:url(#clipPath1); fill:none;" y2="123" />
      <line x1="704" x2="713" y1="125" style="clip-path:url(#clipPath1); fill:none;" y2="128" />
      <line x1="718" x2="728" y1="129" style="clip-path:url(#clipPath1); fill:none;" y2="132" />
      <line x1="733" x2="742" y1="133" style="clip-path:url(#clipPath1); fill:none;" y2="136" />
      <line x1="747" x2="757" y1="138" style="clip-path:url(#clipPath1); fill:none;" y2="140" />
      <line x1="761" x2="765" y1="142" style="clip-path:url(#clipPath1); fill:none;" y2="143" />
      <line x1="519" x2="519" y1="83" style="clip-path:url(#clipPath1); fill:none;" y2="90" />
      <line x1="519" x2="519" y1="95" style="clip-path:url(#clipPath1); fill:none;" y2="105" />
      <line x1="519" x2="519" y1="110" style="clip-path:url(#clipPath1); fill:none;" y2="120" />
      <line x1="519" x2="519" y1="125" style="clip-path:url(#clipPath1); fill:none;" y2="135" />
      <line x1="519" x2="519" y1="140" style="clip-path:url(#clipPath1); fill:none;" y2="143" />
      <line x1="245" x2="233" y1="174" style="clip-path:url(#clipPath1); fill:none;" y2="169" />
      <line x1="245" x2="233" y1="174" style="clip-path:url(#clipPath1); fill:none;" y2="179" />
      <line x1="400" x2="389" y1="276" style="clip-path:url(#clipPath1); fill:none;" y2="268" />
      <line x1="400" x2="387" y1="276" style="clip-path:url(#clipPath1); fill:none;" y2="278" />
      <line x1="794" x2="789" y1="206" style="clip-path:url(#clipPath1); fill:none;" y2="218" />
      <line x1="794" x2="799" y1="206" style="clip-path:url(#clipPath1); fill:none;" y2="218" />
      <line x1="555" x2="567" y1="174" style="clip-path:url(#clipPath1); fill:none;" y2="179" />
      <line x1="555" x2="567" y1="174" style="clip-path:url(#clipPath1); fill:none;" y2="169" />
      <line x1="448" x2="461" y1="276" style="clip-path:url(#clipPath1); fill:none;" y2="278" />
      <line x1="448" x2="459" y1="276" style="clip-path:url(#clipPath1); fill:none;" y2="268" />
      <line x1="812" x2="807" y1="83" style="clip-path:url(#clipPath1); fill:none;" y2="95" />
      <line x1="812" x2="817" y1="83" style="clip-path:url(#clipPath1); fill:none;" y2="95" />
      <line x1="317" x2="330" y1="143" style="clip-path:url(#clipPath1); fill:none;" y2="144" />
      <line x1="317" x2="327" y1="143" style="clip-path:url(#clipPath1); fill:none;" y2="134" />
      <line x1="765" x2="755" y1="143" style="clip-path:url(#clipPath1); fill:none;" y2="135" />
      <line x1="765" x2="752" y1="143" style="clip-path:url(#clipPath1); fill:none;" y2="144" />
      <line x1="519" x2="524" y1="143" style="clip-path:url(#clipPath1); fill:none;" y2="131" />
      <line x1="519" x2="514" y1="143" style="clip-path:url(#clipPath1); fill:none;" y2="131" />
    </g>
  </g>
</svg>
