<?xml version="1.0" encoding="UTF-8"?>

<!DOCTYPE svg PUBLIC '-//W3C//DTD SVG 20001102//EN' 'http://www.w3.org/TR/2000/CR-SVG-20001102/DTD/svg-20001102.dtd'>
<svg style="fill-opacity:1; color-interpolation:sRGB; color-rendering:auto; text-rendering:auto; stroke:black; stroke-linecap:square; stroke-miterlimit:10; stroke-opacity:1; shape-rendering:auto; fill:black; stroke-dasharray:none; font-weight:normal; stroke-width:1; font-family:&apos;Lucida Sans&apos;; font-style:normal; stroke-linejoin:miter; font-size:12; image-rendering:auto; stroke-dashoffset:0;" width="739" height="300">
  <!--Generated by the Batik Graphics2D SVG Generator-->
  <defs id="genericDefs" />
  <g>
    <defs id="defs1">
      <clipPath clipPathUnits="userSpaceOnUse" id="clipPath1">
        <path d="M0 0 L739 0 L739 300 L0 300 L0 0 Z" />
      </clipPath>
      <clipPath clipPathUnits="userSpaceOnUse" id="clipPath2">
        <path d="M20 220 L20 287 L318 287 L318 220 Z" />
      </clipPath>
      <clipPath clipPathUnits="userSpaceOnUse" id="clipPath3">
        <path d="M21 221 L21 235 L318 235 L318 221 Z" />
      </clipPath>
      <clipPath clipPathUnits="userSpaceOnUse" id="clipPath4">
        <path d="M20 260 L20 277 L318 277 L318 260 Z" />
      </clipPath>
      <clipPath clipPathUnits="userSpaceOnUse" id="clipPath5">
        <path d="M22 262 L22 276 L317 276 L317 262 Z" />
      </clipPath>
      <clipPath clipPathUnits="userSpaceOnUse" id="clipPath6">
        <path d="M36 20 L36 158 L358 158 L358 20 Z" />
      </clipPath>
      <clipPath clipPathUnits="userSpaceOnUse" id="clipPath7">
        <path d="M37 21 L37 35 L358 35 L358 21 Z" />
      </clipPath>
      <clipPath clipPathUnits="userSpaceOnUse" id="clipPath8">
        <path d="M36 60 L36 116 L358 116 L358 60 Z" />
      </clipPath>
      <clipPath clipPathUnits="userSpaceOnUse" id="clipPath9">
        <path d="M38 62 L38 115 L357 115 L357 62 Z" />
      </clipPath>
      <clipPath clipPathUnits="userSpaceOnUse" id="clipPath10">
        <path d="M36 128 L36 148 L358 148 L358 128 Z" />
      </clipPath>
      <clipPath clipPathUnits="userSpaceOnUse" id="clipPath11">
        <path d="M38 130 L38 147 L357 147 L357 130 Z" />
      </clipPath>
      <clipPath clipPathUnits="userSpaceOnUse" id="clipPath12">
        <path d="M484 20 L484 173 L726 173 L726 20 Z" />
      </clipPath>
      <clipPath clipPathUnits="userSpaceOnUse" id="clipPath13">
        <path d="M485 21 L485 35 L726 35 L726 21 Z" />
      </clipPath>
      <clipPath clipPathUnits="userSpaceOnUse" id="clipPath14">
        <path d="M484 60 L484 77 L726 77 L726 60 Z" />
      </clipPath>
      <clipPath clipPathUnits="userSpaceOnUse" id="clipPath15">
        <path d="M486 62 L486 76 L725 76 L725 62 Z" />
      </clipPath>
      <clipPath clipPathUnits="userSpaceOnUse" id="clipPath16">
        <path d="M484 89 L484 163 L726 163 L726 89 Z" />
      </clipPath>
      <clipPath clipPathUnits="userSpaceOnUse" id="clipPath17">
        <path d="M486 91 L486 162 L725 162 L725 91 Z" />
      </clipPath>
    </defs>
    <g style="fill:rgb(0,0,130); stroke:rgb(0,0,130);">
      <line x1="360" x2="468" y1="90" style="clip-path:url(#clipPath1); fill:none;" y2="90" />
      <polygon style="fill:white; clip-path:url(#clipPath1); stroke:none;" points=" 360 90 368 86 376 90 368 94" />
      <polygon style="fill:none; clip-path:url(#clipPath1);" points=" 360 90 368 86 376 90 368 94" />
      <line x1="368" x2="360" y1="94" style="clip-path:url(#clipPath1); fill:none;" y2="90" />
      <line x1="468" x2="456" y1="90" style="clip-path:url(#clipPath1); fill:none;" y2="85" />
      <line x1="468" x2="456" y1="90" style="clip-path:url(#clipPath1); fill:none;" y2="95" />
      <text x="438" y="83" style="clip-path:url(#clipPath1); font-family:sans-serif; stroke:none;">0..*
      </text>
      <rect x="23" y="223" width="297" style="clip-path:url(#clipPath1); fill:navy; font-family:sans-serif; stroke:none;" height="66" />
      <rect x="20" y="220" width="297" style="clip-path:url(#clipPath1); fill:white; font-family:sans-serif; stroke:none;" height="66" />
      <rect x="20" y="220" width="297" style="clip-path:url(#clipPath1); fill:none; font-family:sans-serif; stroke:black;" height="66" />
    </g>
    <g style="font-weight:bold; font-family:sans-serif;">
      <text x="96" y="231" style="clip-path:url(#clipPath3); stroke:none;">SoundEffectManager
      </text>
    </g>
    <g style="font-family:sans-serif;">
      <line x1="20" x2="317" y1="240" style="clip-path:url(#clipPath2); fill:none;" y2="240" />
      <line x1="20" x2="317" y1="253" style="clip-path:url(#clipPath2); fill:none;" y2="253" />
    </g>
    <g style="font-family:sans-serif;">
      <text x="26" y="272" style="clip-path:url(#clipPath5); stroke:none;">+trigger(filename:const std::string &amp;):void
      </text>
    </g>
    <g style="fill:navy; font-family:sans-serif; stroke:navy;">
      <polygon style="clip-path:url(#clipPath1); stroke:none;" points=" 31 23 360 23 360 160 31 160 31 37 23 37 23 29 31 29 31 23" />
      <polygon style="fill:white; clip-path:url(#clipPath1); stroke:none;" points=" 28 20 357 20 357 157 28 157 28 34 20 34 20 26 28 26 28 20" />
      <polygon style="fill:none; clip-path:url(#clipPath1); stroke:black;" points=" 28 20 357 20 357 157 28 157 28 34 20 34 20 26 28 26 28 20" />
      <line x1="28" x2="36" y1="34" style="clip-path:url(#clipPath1); fill:none; stroke:black;" y2="34" />
      <line x1="36" x2="36" y1="34" style="clip-path:url(#clipPath1); fill:none; stroke:black;" y2="26" />
      <line x1="36" x2="28" y1="26" style="clip-path:url(#clipPath1); fill:none; stroke:black;" y2="26" />
    </g>
    <g style="font-weight:bold; font-family:sans-serif;">
      <text x="168" y="31" style="clip-path:url(#clipPath7); stroke:none;">Jukebox
      </text>
    </g>
    <g style="font-family:sans-serif;">
      <line x1="36" x2="357" y1="40" style="clip-path:url(#clipPath6); fill:none;" y2="40" />
      <line x1="36" x2="357" y1="53" style="clip-path:url(#clipPath6); fill:none;" y2="53" />
    </g>
    <g style="font-family:sans-serif;">
      <text x="42" y="72" style="clip-path:url(#clipPath9); stroke:none;">+addTrack(track:const Track &amp;):void
      </text>
      <text x="42" y="85" style="clip-path:url(#clipPath9); stroke:none;">+removeTrack(track:const Track &amp;):void
      </text>
      <text x="42" y="98" style="clip-path:url(#clipPath9); stroke:none;">+start():void
      </text>
      <text x="42" y="111" style="clip-path:url(#clipPath9); stroke:none;">+stop():void
      </text>
    </g>
    <g style="font-family:sans-serif;">
      <line x1="36" x2="357" y1="121" style="clip-path:url(#clipPath6); fill:none;" y2="121" />
    </g>
    <g style="font-family:sans-serif;">
      <text x="42" y="140" style="clip-path:url(#clipPath11); stroke:none;"> numTracks:unsigned int
      </text>
    </g>
    <g style="fill:navy; font-family:sans-serif; stroke:navy;">
      <polygon style="clip-path:url(#clipPath1); stroke:none;" points=" 479 23 728 23 728 175 479 175 479 37 471 37 471 29 479 29 479 23" />
      <polygon style="fill:white; clip-path:url(#clipPath1); stroke:none;" points=" 476 20 725 20 725 172 476 172 476 34 468 34 468 26 476 26 476 20" />
      <polygon style="fill:none; clip-path:url(#clipPath1); stroke:black;" points=" 476 20 725 20 725 172 476 172 476 34 468 34 468 26 476 26 476 20" />
      <line x1="476" x2="484" y1="34" style="clip-path:url(#clipPath1); fill:none; stroke:black;" y2="34" />
      <line x1="484" x2="484" y1="34" style="clip-path:url(#clipPath1); fill:none; stroke:black;" y2="26" />
      <line x1="484" x2="476" y1="26" style="clip-path:url(#clipPath1); fill:none; stroke:black;" y2="26" />
    </g>
    <g style="font-weight:bold; font-family:sans-serif;">
      <text x="586" y="31" style="clip-path:url(#clipPath13); stroke:none;">Track
      </text>
    </g>
    <g style="font-family:sans-serif;">
      <line x1="484" x2="725" y1="40" style="clip-path:url(#clipPath12); fill:none;" y2="40" />
      <line x1="484" x2="725" y1="53" style="clip-path:url(#clipPath12); fill:none;" y2="53" />
    </g>
    <g style="font-family:sans-serif;">
      <text x="490" y="72" style="clip-path:url(#clipPath15); stroke:none;">+Track(file:const std::string &amp;)
      </text>
    </g>
    <g style="font-family:sans-serif;">
      <line x1="484" x2="725" y1="82" style="clip-path:url(#clipPath12); fill:none;" y2="82" />
    </g>
    <g style="font-family:sans-serif;">
      <text x="490" y="101" style="clip-path:url(#clipPath17); stroke:none;"> name:std::string
      </text>
      <text x="490" y="114" style="clip-path:url(#clipPath17); stroke:none;"> filename:std::string
      </text>
      <text x="490" y="127" style="clip-path:url(#clipPath17); stroke:none;"> length:unsigned int
      </text>
    </g>
  </g>
</svg>
