<?xml version="1.0" encoding="UTF-8"?>

<!DOCTYPE svg PUBLIC '-//W3C//DTD SVG 20001102//EN' 'http://www.w3.org/TR/2000/CR-SVG-20001102/DTD/svg-20001102.dtd'>
<svg style="fill-opacity:1; color-interpolation:sRGB; color-rendering:auto; text-rendering:auto; stroke:black; stroke-linecap:square; stroke-miterlimit:10; stroke-opacity:1; shape-rendering:auto; fill:black; stroke-dasharray:none; font-weight:normal; stroke-width:1; font-family:&apos;Lucida Sans&apos;; font-style:normal; stroke-linejoin:miter; font-size:12; image-rendering:auto; stroke-dashoffset:0;" width="541" height="113">
  <!--Generated by the Batik Graphics2D SVG Generator-->
  <defs id="genericDefs" />
  <g>
    <defs id="defs1">
      <clipPath clipPathUnits="userSpaceOnUse" id="clipPath1">
        <path d="M0 0 L541 0 L541 113 L0 113 L0 0 Z" />
      </clipPath>
      <clipPath clipPathUnits="userSpaceOnUse" id="clipPath2">
        <path d="M20 20 L20 87 L218 87 L218 20 Z" />
      </clipPath>
      <clipPath clipPathUnits="userSpaceOnUse" id="clipPath3">
        <path d="M21 21 L21 35 L218 35 L218 21 Z" />
      </clipPath>
      <clipPath clipPathUnits="userSpaceOnUse" id="clipPath4">
        <path d="M20 60 L20 77 L218 77 L218 60 Z" />
      </clipPath>
      <clipPath clipPathUnits="userSpaceOnUse" id="clipPath5">
        <path d="M22 62 L22 76 L217 76 L217 62 Z" />
      </clipPath>
      <clipPath clipPathUnits="userSpaceOnUse" id="clipPath6">
        <path d="M330 20 L330 100 L528 100 L528 20 Z" />
      </clipPath>
      <clipPath clipPathUnits="userSpaceOnUse" id="clipPath7">
        <path d="M331 21 L331 35 L528 35 L528 21 Z" />
      </clipPath>
      <clipPath clipPathUnits="userSpaceOnUse" id="clipPath8">
        <path d="M330 60 L330 90 L528 90 L528 60 Z" />
      </clipPath>
      <clipPath clipPathUnits="userSpaceOnUse" id="clipPath9">
        <path d="M332 62 L332 89 L527 89 L527 62 Z" />
      </clipPath>
    </defs>
    <g style="fill:blue; stroke:blue;">
      <line x1="220" x2="330" y1="54" style="clip-path:url(#clipPath1); fill:none;" y2="54" />
      <line x1="330" x2="318" y1="54" style="clip-path:url(#clipPath1); fill:none;" y2="49" />
      <line x1="330" x2="318" y1="54" style="clip-path:url(#clipPath1); fill:none;" y2="59" />
      <text x="298" y="47" style="clip-path:url(#clipPath1); font-family:sans-serif; stroke:none;">0..1
      </text>
      <rect x="23" y="23" width="197" style="clip-path:url(#clipPath1); fill:navy; font-family:sans-serif; stroke:none;" height="66" />
      <rect x="20" y="20" width="197" style="clip-path:url(#clipPath1); fill:white; font-family:sans-serif; stroke:none;" height="66" />
      <rect x="20" y="20" width="197" style="clip-path:url(#clipPath1); fill:none; font-family:sans-serif; stroke:black;" height="66" />
    </g>
    <g style="font-weight:bold; font-family:sans-serif;">
      <text x="62" y="31" style="clip-path:url(#clipPath3); stroke:none;">TextureManager
      </text>
    </g>
    <g style="font-family:sans-serif;">
      <line x1="20" x2="217" y1="40" style="clip-path:url(#clipPath2); fill:none;" y2="40" />
      <line x1="20" x2="217" y1="53" style="clip-path:url(#clipPath2); fill:none;" y2="53" />
    </g>
    <g style="font-family:sans-serif;">
      <text x="26" y="72" style="clip-path:url(#clipPath5); stroke:none;">+getTexture(name:string):Texture *
      </text>
    </g>
    <g style="fill:navy; font-family:sans-serif; stroke:navy;">
      <rect x="333" y="23" width="197" style="clip-path:url(#clipPath1); stroke:none;" height="79" />
      <rect x="330" y="20" width="197" style="clip-path:url(#clipPath1); fill:white; stroke:none;" height="79" />
      <rect x="330" y="20" width="197" style="clip-path:url(#clipPath1); fill:none; stroke:black;" height="79" />
    </g>
    <g style="font-weight:bold; font-family:sans-serif;">
      <text x="402" y="31" style="clip-path:url(#clipPath7); stroke:none;">Texture
      </text>
    </g>
    <g style="font-family:sans-serif;">
      <line x1="330" x2="527" y1="40" style="clip-path:url(#clipPath6); fill:none;" y2="40" />
      <line x1="330" x2="527" y1="53" style="clip-path:url(#clipPath6); fill:none;" y2="53" />
    </g>
    <g style="font-family:sans-serif;">
      <text x="336" y="72" style="clip-path:url(#clipPath9); stroke:none;">+setParameter(param:string,value:string):void
      </text>
      <text x="336" y="85" style="clip-path:url(#clipPath9); stroke:none;">+bind():void
      </text>
    </g>
  </g>
</svg>
