<?xml version="1.0" encoding="UTF-8"?>

<!DOCTYPE svg PUBLIC '-//W3C//DTD SVG 20001102//EN' 'http://www.w3.org/TR/2000/CR-SVG-20001102/DTD/svg-20001102.dtd'>
<svg style="fill-opacity:1; color-interpolation:sRGB; color-rendering:auto; text-rendering:auto; stroke:black; stroke-linecap:square; stroke-miterlimit:10; stroke-opacity:1; shape-rendering:auto; fill:black; stroke-dasharray:none; font-weight:normal; stroke-width:1; font-family:&apos;Lucida Sans&apos;; font-style:normal; stroke-linejoin:miter; font-size:12; image-rendering:auto; stroke-dashoffset:0;" width="471" height="254">
  <!--Generated by the Batik Graphics2D SVG Generator-->
  <defs id="genericDefs" />
  <g>
    <defs id="defs1">
      <clipPath clipPathUnits="userSpaceOnUse" id="clipPath1">
        <path d="M0 0 L471 0 L471 254 L0 254 L0 0 Z" />
      </clipPath>
      <clipPath clipPathUnits="userSpaceOnUse" id="clipPath2">
        <path d="M66 20 L66 113 L170 113 L170 20 Z" />
      </clipPath>
      <clipPath clipPathUnits="userSpaceOnUse" id="clipPath3">
        <path d="M67 21 L67 48 L170 48 L170 21 Z" />
      </clipPath>
      <clipPath clipPathUnits="userSpaceOnUse" id="clipPath4">
        <path d="M66 73 L66 103 L170 103 L170 73 Z" />
      </clipPath>
      <clipPath clipPathUnits="userSpaceOnUse" id="clipPath5">
        <path d="M68 75 L68 102 L169 102 L169 75 Z" />
      </clipPath>
      <clipPath clipPathUnits="userSpaceOnUse" id="clipPath6">
        <path d="M20 190 L20 241 L101 241 L101 190 Z" />
      </clipPath>
      <clipPath clipPathUnits="userSpaceOnUse" id="clipPath7">
        <path d="M21 191 L21 205 L101 205 L101 191 Z" />
      </clipPath>
      <clipPath clipPathUnits="userSpaceOnUse" id="clipPath8">
        <path d="M290 160 L290 240 L380 240 L380 160 Z" />
      </clipPath>
      <clipPath clipPathUnits="userSpaceOnUse" id="clipPath9">
        <path d="M291 161 L291 175 L380 175 L380 161 Z" />
      </clipPath>
      <clipPath clipPathUnits="userSpaceOnUse" id="clipPath10">
        <path d="M290 200 L290 230 L380 230 L380 200 Z" />
      </clipPath>
      <clipPath clipPathUnits="userSpaceOnUse" id="clipPath11">
        <path d="M292 202 L292 229 L379 229 L379 202 Z" />
      </clipPath>
      <clipPath clipPathUnits="userSpaceOnUse" id="clipPath12">
        <path d="M123 190 L123 241 L228 241 L228 190 Z" />
      </clipPath>
      <clipPath clipPathUnits="userSpaceOnUse" id="clipPath13">
        <path d="M124 191 L124 205 L228 205 L228 191 Z" />
      </clipPath>
      <clipPath clipPathUnits="userSpaceOnUse" id="clipPath14">
        <path d="M290 20 L290 128 L458 128 L458 20 Z" />
      </clipPath>
      <clipPath clipPathUnits="userSpaceOnUse" id="clipPath15">
        <path d="M291 21 L291 35 L458 35 L458 21 Z" />
      </clipPath>
      <clipPath clipPathUnits="userSpaceOnUse" id="clipPath16">
        <path d="M290 60 L290 90 L458 90 L458 60 Z" />
      </clipPath>
      <clipPath clipPathUnits="userSpaceOnUse" id="clipPath17">
        <path d="M292 62 L292 89 L457 89 L457 62 Z" />
      </clipPath>
    </defs>
    <g style="fill:teal; stroke:teal;">
      <line x1="147" x2="147" y1="190" style="clip-path:url(#clipPath1); fill:none;" y2="190" />
      <line x1="147" x2="147" y1="185" style="clip-path:url(#clipPath1); fill:none;" y2="175" />
      <line x1="147" x2="147" y1="170" style="clip-path:url(#clipPath1); fill:none;" y2="160" />
      <line x1="147" x2="147" y1="155" style="clip-path:url(#clipPath1); fill:none;" y2="145" />
      <line x1="147" x2="147" y1="140" style="clip-path:url(#clipPath1); fill:none;" y2="130" />
      <line x1="147" x2="147" y1="125" style="clip-path:url(#clipPath1); fill:none;" y2="115" />
      <line x1="84" x2="84" y1="190" style="clip-path:url(#clipPath1); fill:none;" y2="190" />
      <line x1="84" x2="84" y1="185" style="clip-path:url(#clipPath1); fill:none;" y2="175" />
      <line x1="84" x2="84" y1="170" style="clip-path:url(#clipPath1); fill:none;" y2="160" />
      <line x1="84" x2="84" y1="155" style="clip-path:url(#clipPath1); fill:none;" y2="145" />
      <line x1="84" x2="84" y1="140" style="clip-path:url(#clipPath1); fill:none;" y2="130" />
      <line x1="84" x2="84" y1="125" style="clip-path:url(#clipPath1); fill:none;" y2="115" />
      <line x1="290" x2="172" y1="67" style="clip-path:url(#clipPath1); fill:none; stroke:blue;" y2="67" />
      <polygon style="fill:white; clip-path:url(#clipPath1); stroke:none;" points=" 147 115 153 133 141 133" />
      <polygon style="fill:none; clip-path:url(#clipPath1);" points=" 147 115 153 133 141 133" />
      <line x1="141" x2="147" y1="133" style="clip-path:url(#clipPath1); fill:none;" y2="115" />
      <polygon style="fill:white; clip-path:url(#clipPath1); stroke:none;" points=" 84 115 90 133 78 133" />
      <polygon style="fill:none; clip-path:url(#clipPath1);" points=" 84 115 90 133 78 133" />
      <line x1="78" x2="84" y1="133" style="clip-path:url(#clipPath1); fill:none;" y2="115" />
      <line x1="172" x2="184" y1="67" style="clip-path:url(#clipPath1); fill:none; stroke:blue;" y2="72" />
      <line x1="172" x2="184" y1="67" style="clip-path:url(#clipPath1); fill:none; stroke:blue;" y2="62" />
      <text x="180" y="60" style="clip-path:url(#clipPath1); fill:blue; font-family:sans-serif; stroke:none;">1
      </text>
      <rect x="69" y="23" width="103" style="clip-path:url(#clipPath1); fill:navy; font-family:sans-serif; stroke:none;" height="92" />
      <rect x="66" y="20" width="103" style="clip-path:url(#clipPath1); fill:white; font-family:sans-serif; stroke:none;" height="92" />
      <rect x="66" y="20" width="103" style="clip-path:url(#clipPath1); fill:none; font-family:sans-serif; stroke:black;" height="92" />
    </g>
    <g style="font-family:sans-serif;">
      <text x="90" y="31" style="clip-path:url(#clipPath3); stroke:none;">interface
      </text>
      <text x="87" y="44" style="clip-path:url(#clipPath3); font-style:italic; stroke:none; font-weight:bold;">Lockable
      </text>
    </g>
    <g style="font-family:sans-serif;">
      <line x1="66" x2="169" y1="53" style="clip-path:url(#clipPath2); fill:none;" y2="53" />
      <line x1="66" x2="169" y1="66" style="clip-path:url(#clipPath2); fill:none;" y2="66" />
    </g>
    <g style="font-family:sans-serif; font-style:italic;">
      <text x="72" y="85" style="clip-path:url(#clipPath5); stroke:none;">+lock():void
      </text>
      <text x="72" y="98" style="clip-path:url(#clipPath5); stroke:none;">+unlock():void
      </text>
    </g>
    <g style="fill:navy; font-family:sans-serif; stroke:navy;">
      <rect x="23" y="193" width="80" style="clip-path:url(#clipPath1); stroke:none;" height="50" />
      <rect x="20" y="190" width="80" style="clip-path:url(#clipPath1); fill:white; stroke:none;" height="50" />
      <rect x="20" y="190" width="80" style="clip-path:url(#clipPath1); fill:none; stroke:black;" height="50" />
    </g>
    <g style="font-weight:bold; font-family:sans-serif;">
      <text x="39" y="201" style="clip-path:url(#clipPath7); stroke:none;">Mutex
      </text>
    </g>
    <g style="font-family:sans-serif;">
      <line x1="20" x2="100" y1="210" style="clip-path:url(#clipPath6); fill:none;" y2="210" />
      <line x1="20" x2="100" y1="223" style="clip-path:url(#clipPath6); fill:none;" y2="223" />
    </g>
    <g style="fill:navy; font-family:sans-serif; stroke:navy;">
      <rect x="293" y="163" width="89" style="clip-path:url(#clipPath1); stroke:none;" height="79" />
      <rect x="290" y="160" width="89" style="clip-path:url(#clipPath1); fill:white; stroke:none;" height="79" />
      <rect x="290" y="160" width="89" style="clip-path:url(#clipPath1); fill:none; stroke:black;" height="79" />
    </g>
    <g style="font-style:italic; font-weight:bold; font-family:sans-serif;">
      <text x="310" y="171" style="clip-path:url(#clipPath9); stroke:none;">Thread
      </text>
    </g>
    <g style="font-family:sans-serif;">
      <line x1="290" x2="379" y1="180" style="clip-path:url(#clipPath8); fill:none;" y2="180" />
      <line x1="290" x2="379" y1="193" style="clip-path:url(#clipPath8); fill:none;" y2="193" />
    </g>
    <g style="font-family:sans-serif; font-style:italic;">
      <text x="296" y="212" style="clip-path:url(#clipPath11); stroke:none;">+run():void
      </text>
      <text x="296" y="225" style="font-style:normal; clip-path:url(#clipPath11); stroke:none;">+start():void
      </text>
    </g>
    <g style="fill:navy; font-family:sans-serif; stroke:navy;">
      <rect x="126" y="193" width="104" style="clip-path:url(#clipPath1); stroke:none;" height="50" />
      <rect x="123" y="190" width="104" style="clip-path:url(#clipPath1); fill:white; stroke:none;" height="50" />
      <rect x="123" y="190" width="104" style="clip-path:url(#clipPath1); fill:none; stroke:black;" height="50" />
    </g>
    <g style="font-weight:bold; font-family:sans-serif;">
      <text x="128" y="201" style="clip-path:url(#clipPath13); stroke:none;">Synchronized
      </text>
    </g>
    <g style="font-family:sans-serif;">
      <line x1="123" x2="227" y1="210" style="clip-path:url(#clipPath12); fill:none;" y2="210" />
      <line x1="123" x2="227" y1="223" style="clip-path:url(#clipPath12); fill:none;" y2="223" />
    </g>
    <g style="fill:navy; font-family:sans-serif; stroke:navy;">
      <rect x="293" y="23" width="167" style="clip-path:url(#clipPath1); stroke:none;" height="107" />
      <rect x="290" y="20" width="167" style="clip-path:url(#clipPath1); fill:white; stroke:none;" height="107" />
      <rect x="290" y="20" width="167" style="clip-path:url(#clipPath1); fill:none; stroke:black;" height="107" />
    </g>
    <g style="font-weight:bold; font-family:sans-serif;">
      <text x="358" y="31" style="clip-path:url(#clipPath15); stroke:none;">Lock
      </text>
    </g>
    <g style="font-family:sans-serif;">
      <line x1="290" x2="457" y1="40" style="clip-path:url(#clipPath14); fill:none;" y2="40" />
      <line x1="290" x2="457" y1="53" style="clip-path:url(#clipPath14); fill:none;" y2="53" />
    </g>
    <g style="font-family:sans-serif;">
      <text x="296" y="72" style="clip-path:url(#clipPath17); stroke:none;">+Lock(lock:Lockable *)
      </text>
      <text x="296" y="85" style="clip-path:url(#clipPath17); stroke:none;">+~Lock()
      </text>
    </g>
  </g>
</svg>
