# Max2Obj Version 4.0 Mar 10th, 2001
#
mtllib ./ship.mtl
g
# object shiptop to come ...
#
v  2.0062 0.0128 -1.2089
v  0.7890 0.0128 -2.0204
v  0.3832 1.2300 -0.3975
v  -0.8340 0.0128 -2.0204
v  -2.0512 0.0128 -1.2089
v  -0.4283 1.2300 -0.3975
v  -2.0512 0.0128 1.2255
v  -1.2397 0.4185 2.0369
v  -0.4283 1.2300 0.4140
v  -1.2397 0.4185 2.0369
v  -0.4283 1.2300 0.4140
v  1.1947 0.4185 2.0369
v  2.0062 0.0128 1.2255
v  0.3832 1.2300 0.4140
v  1.6004 0.0128 -2.8319
v  -1.6455 0.0128 -2.8319
v  -0.0225 0.4185 1.6312
v  0.3833 1.2300 -0.3975
v  1.6004 0.0128 0.0083
v  2.0062 0.0128 -1.2089
v  0.3833 1.2300 0.4151
v  2.0062 0.0128 1.2255
v  1.6004 0.0128 0.0083
v  0.3832 1.2300 -0.3975
v  0.7890 0.0128 -2.0204
v  -0.0225 0.0128 -2.4261
v  -0.0225 0.0128 -2.4261
v  -0.8340 0.0128 -2.0204
v  -0.4283 1.2300 -0.3975
v  0.3833 1.2300 -0.3975
v  -0.4283 1.2300 -0.3975
v  -0.4283 1.2300 0.4151
v  0.3833 1.2300 0.4151
v  -0.4283 1.2300 -0.3975
v  0.3832 1.2300 -0.3975
v  -0.0225 0.0128 -2.4261
v  -0.4283 1.2300 -0.3975
v  -2.0512 0.0128 -1.2089
v  -1.6455 0.0128 0.0083
v  -1.6455 0.0128 0.0083
v  -0.4283 1.2300 0.4140
v  -0.4283 1.2300 -0.3975
v  -1.6455 0.0128 0.0083
v  -2.0512 0.0128 1.2255
v  -0.4283 1.2300 0.4140
v  -0.0225 0.4185 1.6312
v  1.1947 0.4185 2.0369
v  0.3833 1.2300 0.4151
v  -0.0225 1.2300 0.4140
v  -0.4283 1.2300 0.4151
v  -0.0225 0.4185 1.6312
v  -0.0225 1.2300 0.4140
v  0.3833 1.2300 0.4151
v  1.6004 0.0128 0.0083
v  0.3833 1.2300 -0.3975
# 55 vertices

vt  -0.0019 0.8018 0.9995
vt  0.3485 1.0045 0.9995
vt  0.3977 0.6063 0.0005
vt  0.6539 1.0045 0.9995
vt  0.9971 0.8042 0.9995
vt  0.5999 0.6063 0.0005
vt  1.0043 0.1984 0.9995
vt  0.8021 -0.0043 0.9995
vt  0.5999 0.4035 0.0005
vt  0.8021 -0.0043 0.9995
vt  0.5999 0.4035 0.0005
vt  0.3977 0.4035 0.0005
vt  0.2018 1.0043 0.9995
vt  0.7957 1.0043 0.9995
vt  0.5048 -0.0032 0.9995
vt  0.3977 0.6063 0.0005
vt  -0.0010 0.5037 0.9995
vt  -0.0019 0.8018 0.9995
vt  0.3977 0.4033 0.0005
vt  -0.0019 0.1984 0.9995
vt  -0.0010 0.5037 0.9995
vt  0.3977 0.6063 0.0005
vt  0.3485 1.0045 0.9995
vt  0.5145 1.0032 0.9995
vt  0.5145 1.0032 0.9995
vt  0.6539 1.0045 0.9995
vt  0.5999 0.6063 0.0005
vt  0.3977 0.6063 0.0005
vt  0.5999 0.6063 0.0005
vt  0.5999 0.4033 0.0005
vt  0.3977 0.4033 0.0005
vt  0.5999 0.6063 0.0005
vt  0.3977 0.6063 0.0005
vt  0.5145 1.0032 0.9995
vt  0.5999 0.6063 0.0005
vt  0.9971 0.8042 0.9995
vt  0.9962 0.5085 0.9995
vt  0.9962 0.5085 0.9995
vt  0.5999 0.4035 0.0005
vt  0.5999 0.6063 0.0005
vt  0.9962 0.5085 0.9995
vt  1.0043 0.1984 0.9995
vt  0.5999 0.4035 0.0005
vt  0.5048 -0.0032 0.9995
vt  0.1979 -0.0043 0.9995
vt  0.3977 0.4033 0.0005
vt  0.5000 0.4011 0.0005
vt  0.5999 0.4033 0.0005
vt  0.5048 -0.0032 0.9995
vt  0.5000 0.4011 0.0005
vt  0.3977 0.4033 0.0005
vt  -0.0010 0.5037 0.9995
vt  0.3977 0.6063 0.0005
# 53 texture vertices

vn  0.0223 0.0334 -0.0056
vn  -0.0234 0.0234 -0.0234
vn  -0.0007 0.0361 -0.0184
vn  0.0234 0.0234 -0.0234
vn  -0.0223 0.0334 -0.0056
vn  0.0007 0.0361 -0.0184
vn  -0.0223 0.0334 0.0056
vn  -0.0223 0.0334 0.0056
vn  -0.0223 0.0334 0.0056
vn  0.0069 0.0343 0.0206
vn  0.0069 0.0343 0.0206
vn  0.0223 0.0334 0.0056
vn  0.0223 0.0334 0.0056
vn  0.0223 0.0334 0.0056
vn  -0.0007 0.0361 -0.0184
vn  0.0007 0.0361 -0.0184
vn  0.0069 0.0343 0.0206
vn  0.0265 0.0294 0.0088
vn  0.0265 0.0294 0.0088
vn  0.0265 0.0294 0.0088
vn  0.0265 0.0294 -0.0088
vn  0.0265 0.0294 -0.0088
vn  0.0265 0.0294 -0.0088
vn  0.0108 0.0325 -0.0217
vn  0.0108 0.0325 -0.0217
vn  0.0108 0.0325 -0.0217
vn  -0.0108 0.0325 -0.0217
vn  -0.0108 0.0325 -0.0217
vn  -0.0108 0.0325 -0.0217
vn  -0.0000 0.0406 0.0000
vn  -0.0000 0.0406 0.0000
vn  -0.0000 0.0406 0.0000
vn  -0.0000 0.0406 0.0000
vn  0.0000 0.0348 -0.0209
vn  0.0000 0.0348 -0.0209
vn  0.0000 0.0348 -0.0209
vn  -0.0265 0.0294 0.0088
vn  -0.0265 0.0294 0.0088
vn  -0.0265 0.0294 0.0088
vn  -0.0287 0.0287 0.0000
vn  -0.0287 0.0287 0.0000
vn  -0.0287 0.0287 0.0000
vn  -0.0265 0.0294 -0.0088
vn  -0.0265 0.0294 -0.0088
vn  -0.0265 0.0294 -0.0088
vn  -0.0069 0.0343 0.0206
vn  -0.0069 0.0343 0.0206
vn  -0.0069 0.0343 0.0206
vn  -0.0001 0.0338 0.0225
vn  0.0001 0.0338 0.0225
vn  0.0001 0.0338 0.0225
vn  0.0001 0.0338 0.0225
vn  0.0287 0.0287 -0.0000
vn  0.0287 0.0287 -0.0000
vn  0.0287 0.0287 -0.0000
# 55 vertex normals

g shiptop
usemtl shiptop
f 15/13/15 2/2/2 3/3/3
f 16/14/16 5/5/5 6/6/6
f 7/7/7 8/8/8 9/9/9
f 12/45/12 13/20/13 14/12/14
f 1/1/1 15/13/15 3/3/3
f 4/4/4 16/14/16 6/6/6
f 11/11/11 10/10/10 17/15/17
f 20/18/20 18/16/18 19/17/19
f 23/21/23 21/19/21 22/20/22
f 26/24/26 24/22/24 25/23/25
f 28/26/28 29/27/29 27/25/27
f 32/30/32 33/31/33 30/28/30
f 31/29/31 32/30/32 30/28/30
f 35/33/35 36/34/36 34/32/34
f 39/37/39 37/35/37 38/36/38
f 42/40/42 40/38/40 41/39/41
f 44/42/44 45/43/45 43/41/43
f 46/44/46 47/45/47 48/46/48
f 49/47/49 46/44/46 48/46/48
f 50/48/50 51/49/51 52/50/52
f 53/51/53 54/52/54 55/53/55
# 21 faces

g
# object shipbottom to come ...
#
v  -1.2397 0.0075 2.0265
v  -2.0512 0.0075 1.2150
v  -1.6455 0.0075 -0.0022
v  -2.0512 0.0075 -1.2194
v  -1.6455 0.0075 -2.8423
v  -0.8340 0.0075 -2.0309
v  -0.0225 0.0075 -2.4366
v  0.7890 0.0075 -2.0309
v  1.6004 0.0075 -2.8423
v  2.0062 0.0075 -1.2194
v  1.6004 0.0075 -0.0022
v  2.0062 0.0075 1.2150
v  1.1947 0.0075 2.0265
v  -0.0225 0.0075 1.6208
# 14 vertices

vt  0.2003 0.9995 0.5000
vt  0.0005 0.8330 0.5000
vt  0.1004 0.5833 0.5000
vt  0.0005 0.3335 0.5000
vt  0.1004 0.0005 0.5000
vt  0.3002 0.1670 0.5000
vt  0.5000 0.0837 0.5000
vt  0.6998 0.1670 0.5000
vt  0.8996 0.0005 0.5000
vt  0.9995 0.3335 0.5000
vt  0.8996 0.5833 0.5000
vt  0.9995 0.8330 0.5000
vt  0.7997 0.9995 0.5000
vt  0.5000 0.9163 0.5000
# 14 texture vertices

g shipbottom
usemtl shipbottom
f 59/57 60/58 61/59
f 63/61 64/62 65/63
f 58/56 59/57 61/59
f 63/61 65/63 66/64
f 67/65 68/66 69/67
f 66/64 67/65 69/67
f 63/61 66/64 69/67
f 62/60 63/61 69/67
f 61/59 62/60 69/67
f 58/56 61/59 69/67
f 58/56 69/67 56/54
f 57/55 58/56 56/54
# 12 faces

g
# object rear to come ...
#
v  1.1892 0.0121 2.0396
v  1.9841 0.0121 1.2077
v  1.1892 0.4179 2.0396
v  1.1892 0.0121 2.0396
v  1.1892 0.4179 2.0396
v  -0.0281 0.4179 1.6339
v  -0.0281 0.0121 1.6339
v  -1.2453 0.0121 2.0390
v  -0.0281 0.0121 1.6339
v  -0.0281 0.4179 1.6339
v  -1.2453 0.4179 2.0390
v  -2.0567 0.0121 1.2281
v  -1.2453 0.0121 2.0390
v  -1.2453 0.4179 2.0390
# 14 vertices

vt  0.0083 0.0221 1.5241
vt  0.6227 0.0269 -0.5241
vt  0.0083 0.4707 1.5241
vt  0.9914 0.6887 1.5241
vt  0.9914 0.9997 1.5241
vt  0.4030 0.9972 0.5251
vt  0.0030 0.6912 1.5226
vt  0.0055 0.9972 1.5226
vt  0.5987 0.9972 0.5251
vt  0.6285 0.0221 -0.4739
vt  0.0079 0.0172 1.5226
vt  0.0079 0.4707 1.5226
vt  0.4054 0.6863 0.5251
vt  0.5987 0.6912 0.5251
# 14 texture vertices

vn  0.0293 0.0000 0.0280
vn  0.0293 0.0000 0.0280
vn  0.0293 0.0000 0.0280
vn  -0.0128 0.0000 0.0385
vn  -0.0128 0.0000 0.0385
vn  -0.0128 0.0000 0.0385
vn  -0.0128 0.0000 0.0385
vn  0.0128 0.0000 0.0385
vn  0.0128 0.0000 0.0385
vn  0.0128 0.0000 0.0385
vn  0.0128 0.0000 0.0385
vn  -0.0287 0.0000 0.0287
vn  -0.0287 0.0000 0.0287
vn  -0.0287 0.0000 0.0287
# 14 vertex normals

g rear
usemtl rear
f 70/68/56 71/69/57 72/70/58
f 74/72/60 75/73/61 76/80/62
f 74/72/60 76/80/62 73/71/59
f 78/81/64 79/76/65 80/75/66
f 77/74/63 78/81/64 80/75/66
f 83/79/69 81/77/67 82/78/68
# 6 faces

g
