# Max2Obj Version 4.0 Mar 10th, 2001
#
mtllib ./ship.mtl
g
# object shiptop to come ...
#
v  50.000000 30.000000 -0.000000
v  20.000002 50.000004 -0.000000
v  10.000000 9.999997 30.000000
v  -20.000002 49.999996 -0.000000
v  -50.000000 30.000000 -0.000000
v  -10.000000 9.999999 30.000000
v  -50.000000 -29.999998 -0.000000
v  -30.000002 -49.999996 9.999994
v  -10.000000 -9.999999 30.000000
v  -30.000000 -49.999996 9.999998
v  -10.000000 -9.999999 30.000000
v  29.999992 -50.000000 9.999995
v  49.999996 -30.000000 -0.000000
v  9.999999 -9.999998 30.000000
v  40.000000 70.000000 -0.000000
v  -40.000004 70.000000 -0.000000
v  -0.000003 -40.000000 9.999994
v  10.001881 9.999997 30.000000
v  40.000000 -0.000001 0.000000
v  50.000000 30.000000 -0.000000
v  10.001878 -10.027349 30.000000
v  49.999996 -30.000000 -0.000000
v  40.000000 0.000000 0.000000
v  10.000000 9.999993 30.000002
v  20.000002 50.000004 0.000000
v  0.000000 60.000004 0.000000
v  -0.000000 60.000004 0.000000
v  -20.000002 49.999996 0.000000
v  -10.000001 9.999999 30.000002
v  10.001879 9.999999 30.000000
v  -10.000000 9.999999 30.000000
v  -10.000000 -10.027347 30.000000
v  10.001879 -10.027347 30.000000
v  -10.000000 9.999997 30.000002
v  10.000000 9.999993 30.000002
v  0.000000 59.999996 -0.000000
v  -10.000001 9.999997 30.000000
v  -50.000004 30.000000 0.000000
v  -40.000004 0.000001 0.000000
v  -40.000004 -0.000000 0.000000
v  -10.000000 -10.000000 30.000000
v  -10.000000 9.999999 30.000000
v  -40.000000 -0.000000 0.000000
v  -50.000000 -29.999998 0.000000
v  -10.000000 -10.000000 30.000000
v  -0.000003 -40.000000 9.999994
v  29.999992 -50.000004 9.999995
v  10.001879 -10.027350 30.000000
v  0.000000 -10.000003 30.000000
v  -10.000000 -10.027348 30.000000
v  -0.000003 -40.000000 9.999994
v  -0.000000 -10.000001 30.000000
v  10.001879 -10.027349 30.000000
v  40.000000 -0.000001 0.000000
v  10.001879 9.999997 30.000000
# 55 vertices

vt  -0.001916 0.801766 0.999500
vt  0.348509 1.004498 0.999500
vt  0.397685 0.606280 0.000500
vt  0.653906 1.004498 0.999500
vt  0.997085 0.804181 0.999500
vt  0.599900 0.606280 0.000500
vt  1.004331 0.198401 0.999500
vt  0.802116 -0.004331 0.999500
vt  0.599900 0.403548 0.000500
vt  0.802116 -0.004331 0.999500
vt  0.599900 0.403548 0.000500
vt  0.397685 0.403548 0.000500
vt  0.201849 1.004331 0.999500
vt  0.795736 1.004331 0.999500
vt  0.504831 -0.003207 0.999500
vt  0.397666 0.606280 0.000500
vt  -0.001050 0.503706 0.999500
vt  -0.001916 0.801766 0.999500
vt  0.397666 0.403320 0.000500
vt  -0.001916 0.198401 0.999500
vt  -0.001050 0.503706 0.999500
vt  0.397685 0.606280 0.000500
vt  0.348509 1.004498 0.999500
vt  0.514493 1.003207 0.999500
vt  0.514493 1.003207 0.999500
vt  0.653906 1.004498 0.999500
vt  0.599900 0.606280 0.000500
vt  0.397666 0.606280 0.000500
vt  0.599900 0.606280 0.000500
vt  0.599900 0.403320 0.000500
vt  0.397666 0.403320 0.000500
vt  0.599900 0.606280 0.000500
vt  0.397685 0.606280 0.000500
vt  0.514493 1.003207 0.999500
vt  0.599900 0.606280 0.000500
vt  0.997085 0.804181 0.999500
vt  0.996219 0.508537 0.999500
vt  0.996219 0.508537 0.999500
vt  0.599900 0.403548 0.000500
vt  0.599900 0.606280 0.000500
vt  0.996219 0.508537 0.999500
vt  1.004331 0.198401 0.999500
vt  0.599900 0.403548 0.000500
vt  0.504831 -0.003207 0.999500
vt  0.197884 -0.004331 0.999500
vt  0.397666 0.403320 0.000500
vt  0.500000 0.401133 0.000500
vt  0.599900 0.403320 0.000500
vt  0.504831 -0.003207 0.999500
vt  0.500000 0.401133 0.000500
vt  0.397666 0.403320 0.000500
vt  -0.001050 0.503706 0.999500
vt  0.397666 0.606280 0.000500
# 53 texture vertices

vn  0.549442 0.137361 0.824163
vn  -0.577350 0.577350 0.577350
vn  -0.017737 0.454224 0.890711
vn  0.577350 0.577350 0.577350
vn  -0.549442 0.137361 0.824163
vn  0.017736 0.454224 0.890711
vn  -0.549442 -0.137361 0.824163
vn  -0.549442 -0.137361 0.824163
vn  -0.549442 -0.137361 0.824163
vn  0.169031 -0.507093 0.845154
vn  0.169031 -0.507093 0.845154
vn  0.549442 -0.137361 0.824163
vn  0.549442 -0.137361 0.824163
vn  0.549442 -0.137361 0.824163
vn  -0.017737 0.454224 0.890711
vn  0.017736 0.454224 0.890711
vn  0.169031 -0.507093 0.845154
vn  0.652948 -0.217649 0.725457
vn  0.652948 -0.217649 0.725457
vn  0.652948 -0.217649 0.725457
vn  0.652854 0.217618 0.725551
vn  0.652854 0.217618 0.725551
vn  0.652854 0.217618 0.725551
vn  0.267261 0.534522 0.801784
vn  0.267261 0.534522 0.801784
vn  0.267261 0.534522 0.801784
vn  -0.267261 0.534522 0.801784
vn  -0.267261 0.534522 0.801784
vn  -0.267261 0.534522 0.801784
vn  -0.000000 0.000000 1.000000
vn  -0.000000 0.000000 1.000000
vn  -0.000000 0.000000 1.000000
vn  0.000000 0.000000 1.000000
vn  0.000000 0.514496 0.857493
vn  0.000000 0.514496 0.857493
vn  0.000000 0.514496 0.857493
vn  -0.652928 -0.217643 0.725476
vn  -0.652928 -0.217643 0.725476
vn  -0.652928 -0.217643 0.725476
vn  -0.707107 -0.000000 0.707107
vn  -0.707107 -0.000000 0.707107
vn  -0.707107 -0.000000 0.707107
vn  -0.652928 0.217643 0.725476
vn  -0.652928 0.217643 0.725476
vn  -0.652928 0.217643 0.725476
vn  -0.169128 -0.507383 0.844960
vn  -0.169128 -0.507383 0.844960
vn  -0.169128 -0.507383 0.844960
vn  -0.001517 -0.554700 0.832049
vn  0.001517 -0.554700 0.832049
vn  0.001517 -0.554700 0.832049
vn  0.001517 -0.554700 0.832049
vn  0.707129 0.000000 0.707085
vn  0.707129 0.000000 0.707085
vn  0.707129 0.000000 0.707085
# 55 vertex normals

g shiptop
usemtl shiptop
f 15/13/15 2/2/2 3/3/3
f 16/14/16 5/5/5 6/6/6
f 7/7/7 8/8/8 9/9/9
f 12/45/12 13/20/13 14/12/14
f 1/1/1 15/13/15 3/3/3
f 4/4/4 16/14/16 6/6/6
f 11/11/11 10/10/10 17/15/17
f 20/18/20 18/16/18 19/17/19
f 23/21/23 21/19/21 22/20/22
f 26/24/26 24/22/24 25/23/25
f 28/26/28 29/27/29 27/25/27
f 32/30/32 33/31/33 30/28/30
f 31/29/31 32/30/32 30/28/30
f 35/33/35 36/34/36 34/32/34
f 39/37/39 37/35/37 38/36/38
f 42/40/42 40/38/40 41/39/41
f 44/42/44 45/43/45 43/41/43
f 46/44/46 47/45/47 48/46/48
f 49/47/49 46/44/46 48/46/48
f 50/48/50 51/49/51 52/50/52
f 53/51/53 54/52/54 55/53/55
# 21 faces

g
# object shipbottom to come ...
#
v  -29.999998 -49.999992 -0.000004
v  -50.000000 -29.999998 -0.000003
v  -40.000000 0.000000 -0.000000
v  -50.000000 30.000000 0.000003
v  -40.000004 70.000000 0.000006
v  -20.000002 50.000000 0.000004
v  0.000000 60.000000 0.000005
v  20.000000 50.000008 0.000004
v  40.000000 70.000000 0.000006
v  50.000000 30.000000 0.000003
v  40.000000 0.000000 -0.000000
v  49.999996 -30.000002 -0.000003
v  29.999996 -50.000000 -0.000004
v  -0.000001 -40.000000 -0.000003
# 14 vertices

vt  0.200300 0.999500 0.500000
vt  0.000500 0.833000 0.500000
vt  0.100400 0.583250 0.500000
vt  0.000500 0.333500 0.500000
vt  0.100400 0.000500 0.500000
vt  0.300200 0.167000 0.500000
vt  0.500000 0.083750 0.500000
vt  0.699800 0.167000 0.500000
vt  0.899600 0.000500 0.500000
vt  0.999500 0.333500 0.500000
vt  0.899600 0.583250 0.500000
vt  0.999500 0.833000 0.500000
vt  0.799700 0.999500 0.500000
vt  0.500000 0.916250 0.500000
# 14 texture vertices

g shipbottom
usemtl shipbottom
f 59/57 60/58 61/59
f 63/61 64/62 65/63
f 58/56 59/57 61/59
f 63/61 65/63 66/64
f 67/65 68/66 69/67
f 66/64 67/65 69/67
f 63/61 66/64 69/67
f 62/60 63/61 69/67
f 61/59 62/60 69/67
f 58/56 61/59 69/67
f 58/56 69/67 56/54
f 57/55 58/56 56/54
# 12 faces

g
# object rear to come ...
#
v  29.999992 -50.000004 0.000000
v  49.592426 -29.497114 0.000000
v  29.999992 -50.000004 9.999995
v  29.999992 -50.000004 0.000000
v  29.999992 -50.000004 9.999995
v  -0.000004 -40.000000 9.999995
v  -0.000004 -40.000000 0.000000
v  -30.000004 -49.985149 0.000000
v  -0.000004 -40.000000 0.000000
v  -0.000004 -40.000000 9.999994
v  -30.000004 -49.985149 9.999998
v  -50.000004 -29.999998 0.000000
v  -30.000004 -49.985149 0.000000
v  -30.000004 -49.985149 9.999998
# 14 vertices

vt  0.008285 0.022076 1.524120
vt  0.622689 0.026907 -0.524120
vt  0.008285 0.470677 1.524120
vt  0.991377 0.688743 1.524120
vt  0.991377 0.999663 1.524120
vt  0.403010 0.997248 0.525118
vt  0.003050 0.691158 1.522635
vt  0.005465 0.997248 1.522635
vt  0.598662 0.997248 0.525118
vt  0.628519 0.022076 -0.473884
vt  0.007881 0.017245 1.522635
vt  0.007881 0.470678 1.522635
vt  0.405426 0.686327 0.525118
vt  0.598662 0.691158 0.525118
# 14 texture vertices

vn  0.722977 -0.690872 0.000000
vn  0.722977 -0.690872 0.000000
vn  0.722977 -0.690872 0.000000
vn  -0.316228 -0.948683 0.000000
vn  -0.316228 -0.948683 0.000000
vn  -0.316228 -0.948683 0.000000
vn  -0.316228 -0.948683 0.000000
vn  0.315805 -0.948824 0.000000
vn  0.315805 -0.948824 0.000000
vn  0.315805 -0.948824 0.000000
vn  0.315805 -0.948824 0.000000
vn  -0.706844 -0.707369 0.000000
vn  -0.706844 -0.707369 0.000000
vn  -0.706844 -0.707369 0.000000
# 14 vertex normals

g rear
usemtl rear
f 70/68/56 71/69/57 72/70/58
f 74/72/60 75/73/61 76/80/62
f 74/72/60 76/80/62 73/71/59
f 78/81/64 79/76/65 80/75/66
f 77/74/63 78/81/64 80/75/66
f 83/79/69 81/77/67 82/78/68
# 6 faces

g
