#
# Wavefront OBJ file: /home9/users/browner/crate2.obj
#
# Converted by the PolyTrans geometry converter from Okino Computer Graphics, Inc.
# Date/time of export: 11/13/2002 12:40:21
#
# Bounding box of geometry = (-53.1738,1.16415e-10,-53.1738) to (53.1738,106.348,53.1738).

mtllib crate2.mtl

# Coordinates for object 'Box01'
v -0.53173809 0.0 0.53173809
v 0.53173809 0.0 0.53173809
v -0.53173809 0.0 -0.53173809
v 0.53173809 0.0 -0.53173809
v -0.53173809 1.06347618 0.53173809
v 0.53173809 1.06347618 0.53173809
v -0.53173809 1.06347618 -0.53173809
v 0.53173809 1.06347618 -0.53173809
v -0.53173809 0.0 0.53173809
v 0.53173809 0.0 0.53173809
v 0.53173809 1.06347618 0.53173809
v 0.53173809 1.06347618 0.53173809
v -0.53173809 1.06347618 0.53173809
v -0.53173809 0.0 0.53173809
v 0.53173809 0.0 0.53173809
v 0.53173809 0.0 -0.53173809
v 0.53173809 1.06347618 -0.53173809
v 0.53173809 1.06347618 -0.53173809
v 0.53173809 1.06347618 0.53173809
v 0.53173809 0.0 0.53173809
v 0.53173809 0.0 -0.53173809
v -0.53173809 0.0 -0.53173809
v -0.53173809 1.06347618 -0.53173809
v -0.53173809 1.06347618 -0.53173809
v 0.53173809 1.06347618 -0.53173809
v 0.53173809 0.0 -0.53173809
v -0.53173809 0.0 -0.53173809
v -0.53173809 0.0 0.53173809
v -0.53173809 1.06347618 0.53173809
v -0.53173809 1.06347618 0.53173809
v -0.53173809 1.06347618 -0.53173809
v -0.53173809 0.0 -0.53173809
# 32 vertices

vt 0.0005 0.0005
vt 0.0005 0.9995
vt 0.0005 0.0005
vt 0.0005 0.9995
vt 0.0005 0.0005
vt 0.0005 0.9995
vt 0.0005 0.0005
vt 0.9995 0.0005
vt 0.9995 0.9995
vt 0.9995 0.0005
vt 0.9995 0.9995
vt 0.9995 0.0005
vt 0.9995 0.9995
vt 0.999501 0.0005
# 14 texture vertices

vn  -1.0 0.0 0.0 
vn  0.0 -1.0 0.0 
vn  0.0 0.0 -1.0 
vn  0.0 0.0 1.0 
vn  0.0 1.0 0.0 
vn  1.0 0.0 0.0 
# 6 normals

usemtl 6___default

o Box01
g Box01

s off
f 1/14/2 3/13/2 4/4/2
f 4/4/2 2/7/2 1/14/2
f 5/1/5 6/10/5 8/13/5
f 8/13/5 7/6/5 5/1/5
f 9/1/4 10/10/4 11/11/4
f 12/11/4 13/2/4 14/1/4
f 15/5/6 16/8/6 17/9/6
f 18/9/6 19/6/6 20/5/6
f 21/3/3 22/12/3 23/13/3
f 24/13/3 25/4/3 26/3/3
f 27/5/1 28/8/1 29/9/1
f 30/9/1 31/6/1 32/5/1
# 12 polygons
