# Wavefront OBJ exported by MilkShape 3D

 mtllib box.mtl

v 0.52912777 0.02156387 0.3025
v 0.52912777 3.00156372 0.3025
v -0.29731771 0.02156387 0.5239455
v -0.29731771 3.00156372 0.5239455
v -0.51876297 0.02156387 -0.30249998
v -0.51876297 3.00156372 -0.30249998
v 0.30768242 0.02156387 -0.52394539
v 0.30768242 3.00156372 -0.52394539
v 0.00518238 3.00156372 6e-08
v 0.00518238 0.02156387 6e-08
# 10 vertices

vt 0.000000 1.000000
vt 0.000000 0.000000
vt 0.250000 0.000000
vt 0.250000 1.000000
vt 0.500000 1.000000
vt 0.500000 0.000000
vt 0.750000 0.000000
vt 0.750000 1.000000
vt 1.000000 1.000000
vt 1.000000 0.000000
# 10 texture coordinates

vn 0.500000 -0.816497 0.288675
vn -0.408248 -0.577350 0.707107
vn 0.000000 -1.000000 0.000000
vn 0.707107 0.577350 0.408248
vn 0.000000 1.000000 0.000000
vn -0.288675 0.816497 0.500000
vn -0.500000 -0.816497 -0.288675
vn -0.707107 0.577350 -0.408248
vn 0.408248 -0.577350 -0.707107
vn 0.288675 0.816497 -0.500000
# 10 normals

g Cylinder04
usemtl Material03
s 1
f 1/1/1 3/1/2 10/1/3
f 2/1/4 9/1/5 4/1/6
f 1/2/1 2/1/4 3/3/2
f 2/1/4 4/4/6 3/3/2
f 3/1/2 5/1/7 10/1/3
f 4/1/6 9/1/5 6/1/8
f 3/3/2 4/4/6 6/5/8
f 3/3/2 6/5/8 5/6/7
f 5/1/7 7/1/9 10/1/3
f 6/1/8 9/1/5 8/1/10
f 5/6/7 6/5/8 7/7/9
f 6/5/8 8/8/10 7/7/9
f 7/1/9 1/1/1 10/1/3
f 8/1/10 9/1/5 2/1/4
f 7/7/9 8/8/10 2/9/4
f 7/7/9 2/9/4 1/10/1
# 16 triangles in group

# 16 triangles total

