#
# Wavefront OBJ file: /home9/users/bscott/open/isugamedev/midworld/model_dev/3ds/walls/wallCorner.obj
#
# Converted by the PolyTrans geometry converter from Okino Computer Graphics, Inc.
# Date/time of export: 10/23/2002 19:14:27
#
# Bounding box of geometry = (-25.0713,0,-24.6063) to (73.3539,59.0551,73.8063).

mtllib wall_corner.mtl

# Coordinates for object 'Box03'
v -2.5071339 0.0 2.4606298
v 2.4141258 0.0 2.4606298
v 7.3353851 0.0 2.4606298
v -2.5071339 0.0 -2.4606298
v 2.4141258 0.0 -2.4606298
v 7.3353851 0.0 -2.4606298
v -1.5642059 5.9055119 1.5188148
v 1.4711979 5.9055119 1.5188148
v 7.3353851 5.9055119 1.5188151
v -1.5642059 5.9055119 -1.5188152
v 1.4711979 5.9055119 -1.5188152
v 7.3353851 5.9055119 -1.5188149
v -2.5071339 1.9866821 2.4606298
v 2.4141258 1.9866821 2.4606298
v 7.3353851 1.9866821 2.4606298
v 7.3353851 1.9866821 -2.4606297
v 2.4141258 1.9866821 -2.4606298
v -2.5071339 1.9866821 -2.4606297
v -2.5071339 0.0 7.3806297
v 2.4141258 0.0 7.3806297
v -1.5642059 5.9055119 7.3806297
v 1.4711979 5.9055119 7.3806297
v -2.5071339 1.9866821 7.3806297
v 2.4141258 1.9866821 7.3806297
v 2.4141258 0.0 2.4606298
v 7.3353851 0.0 2.4606298
v 2.4141258 0.0 2.4606298
v 7.3353851 5.9055119 1.5188151
v 7.3353851 5.9055119 1.5188151
v 1.4711979 5.9055119 1.5188148
v 7.3353851 0.0 2.4606298
v 7.3353851 0.0 -2.4606298
v 7.3353851 1.9866821 2.4606298
v 7.3353851 0.0 2.4606298
v 7.3353851 1.9866821 2.4606298
v 7.3353851 5.9055119 -1.5188149
v 7.3353851 5.9055119 -1.5188149
v 7.3353851 5.9055119 1.5188151
v 7.3353851 1.9866821 2.4606298
v 7.3353851 0.0 -2.4606298
v 2.4141258 0.0 -2.4606298
v 7.3353851 1.9866821 -2.4606297
v 7.3353851 0.0 -2.4606298
v 2.4141258 0.0 -2.4606298
v -2.5071339 0.0 -2.4606298
v 2.4141258 0.0 -2.4606298
v 7.3353851 1.9866821 -2.4606297
v 1.4711979 5.9055119 -1.5188152
v 1.4711979 5.9055119 -1.5188152
v 7.3353851 5.9055119 -1.5188149
v 7.3353851 1.9866821 -2.4606297
v -1.5642059 5.9055119 -1.5188152
v -1.5642059 5.9055119 -1.5188152
v 1.4711979 5.9055119 -1.5188152
v -2.5071339 0.0 -2.4606298
v -2.5071339 0.0 2.4606298
v -2.5071339 1.9866821 -2.4606297
v -2.5071339 0.0 -2.4606298
v -2.5071339 1.9866821 -2.4606297
v -1.5642059 5.9055119 1.5188148
v -1.5642059 5.9055119 1.5188148
v -1.5642059 5.9055119 -1.5188152
v -2.5071339 1.9866821 -2.4606297
v 2.4141258 0.0 7.3806297
v 2.4141258 0.0 7.3806297
v -2.5071339 0.0 7.3806297
v -1.5642059 5.9055119 7.3806297
v -1.5642059 5.9055119 7.3806297
v 1.4711979 5.9055119 7.3806297
v 2.4141258 0.0 2.4606298
v 2.4141258 1.9866821 2.4606298
v 2.4141258 1.9866821 7.3806297
v 2.4141258 1.9866821 7.3806297
v 2.4141258 0.0 7.3806297
v 2.4141258 0.0 2.4606298
v -2.5071339 0.0 2.4606298
v -2.5071339 0.0 7.3806297
v -2.5071339 0.0 7.3806297
v -2.5071339 1.9866821 7.3806297
v 2.4141258 1.9866821 2.4606298
v 1.4711979 5.9055119 1.5188148
v 1.4711979 5.9055119 7.3806297
v 1.4711979 5.9055119 7.3806297
v 2.4141258 1.9866821 7.3806297
v 2.4141258 1.9866821 2.4606298
v -1.5642059 5.9055119 1.5188148
v -2.5071339 1.9866821 7.3806297
v -2.5071339 1.9866821 7.3806297
v -1.5642059 5.9055119 7.3806297
v -1.5642059 5.9055119 1.5188148
# 90 vertices

vt 0.03 0.205287
vt 0.03 0.380619
vt 0.03 0.413131
vt 0.03 0.521354
vt 0.03 0.759596
vt 0.03 0.934928
vt 0.10078 0.759596
vt 0.10078 0.934928
vt 0.205332 0.03
vt 0.205332 0.205287
vt 0.205332 0.380619
vt 0.238926 0.413131
vt 0.238926 0.521354
vt 0.238926 0.730195
vt 0.240398 0.759596
vt 0.240398 0.968522
vt 0.34707 0.413131
vt 0.34707 0.521354
vt 0.34707 0.730195
vt 0.376471 0.413131
vt 0.376471 0.552749
vt 0.376471 0.623529
vt 0.376471 0.676593
vt 0.376471 0.85188
vt 0.380664 0.03
vt 0.380664 0.205287
vt 0.380664 0.380619
vt 0.41318 0.169618
vt 0.41318 0.240398
vt 0.446774 0.03
vt 0.447251 0.676593
vt 0.447251 0.85188
vt 0.551758 0.552749
vt 0.551758 0.623529
vt 0.554918 0.03
vt 0.585312 0.413131
vt 0.586869 0.643039
vt 0.586869 0.85188
vt 0.588512 0.169618
vt 0.588512 0.240398
vt 0.613276 0.643039
vt 0.613276 0.818371
vt 0.684056 0.643039
vt 0.684056 0.818371
vt 0.693535 0.413131
vt 0.72709 0.552749
vt 0.72709 0.623529
vt 0.759602 0.413131
vt 0.759602 0.588463
vt 0.763844 0.03
vt 0.763844 0.169618
vt 0.763844 0.240398
vt 0.823674 0.676593
vt 0.823674 0.784816
vt 0.830382 0.413131
vt 0.830382 0.588463
vt 0.97 0.446725
vt 0.97 0.554869
# 58 texture vertices

vn  -1.0 0.0 0.0 
vn  -0.996917 0.078465 0.0 
vn  -0.972252 0.233938 0.0 
vn  0.0 0.078376 -0.996924 
vn  0.0 0.156752 0.987638 
vn  0.0 -1.0 0.0 
vn  0.0 0.0 -1.0 
vn  0.0 0.0 1.0 
vn  0.0 0.078376 0.996924 
vn  0.0 0.233677 0.972314 
vn  0.0 1.0 0.0 
vn  0.0 0.117656 -0.993054 
vn  0.0 0.233677 -0.972314 
vn  0.972252 0.233938 0.0 
vn  1.0 0.0 0.0 
# 15 normals

usemtl material__49

o Box03
g Box03

s off
f 1/26/6 4/27/6 5/11/6
f 5/11/6 2/10/6 1/26/6
f 2/10/6 5/11/6 6/2/6
f 6/2/6 3/1/6 2/10/6
f 7/18/11 8/13/11 11/12/11
f 11/12/11 10/17/11 7/18/11
f 8/13/11 9/4/11 12/3/11
f 12/3/11 11/12/11 8/13/11
f 19/49/8 20/48/8 24/55/8
f 24/55/8 23/56/8 19/49/8
f 25/6/8 26/5/8 15/7/9
f 15/7/9 14/8/5 27/6/8
f 23/56/8 24/55/8 22/57/8
f 22/57/8 21/58/8 23/56/8
f 14/8/5 15/7/9 28/15/10
f 29/15/10 30/16/10 14/8/5
f 31/42/15 32/41/15 16/43/15
f 16/43/15 33/44/15 34/42/15
f 35/44/15 16/43/15 36/53/15
f 37/53/15 38/54/15 39/44/15
f 40/52/7 41/40/7 17/39/12
f 17/39/12 42/51/7 43/52/7
f 44/40/7 45/29/7 18/28/4
f 18/28/4 17/39/12 46/40/7
f 47/51/13 17/39/12 48/35/13
f 49/35/13 50/50/13 51/51/13
f 17/39/12 18/28/4 52/30/13
f 53/30/13 54/35/13 17/39/12
f 55/47/1 56/34/1 13/33/2
f 13/33/2 57/46/1 58/47/1
f 59/46/3 13/33/2 60/36/3
f 61/36/3 62/45/3 63/46/3
f 1/26/6 2/10/6 64/9/6
f 65/9/6 66/25/6 1/26/6
f 8/13/11 7/18/11 67/19/11
f 68/19/11 69/14/11 8/13/11
f 70/23/15 71/31/15 72/32/15
f 73/32/15 74/24/15 75/23/15
f 13/33/1 76/34/1 77/22/1
f 78/22/1 79/21/1 13/33/1
f 80/31/14 81/37/14 82/38/14
f 83/38/14 84/32/14 85/31/14
f 86/36/3 13/33/3 87/21/3
f 88/21/3 89/20/3 90/36/3
# 44 polygons
